<svg width="44" height="41" viewBox="0 0 44 41" fill="none" xmlns="http://www.w3.org/2000/svg">
<rect width="44" height="41" rx="4" fill="#0072CE"/>
<path d="M33.25 22C33.25 22.1989 33.171 22.3897 33.0303 22.5303C32.8897 22.671 32.6989 22.75 32.5 22.75C32.3011 22.75 32.1103 22.671 31.9697 22.5303C31.829 22.3897 31.75 22.1989 31.75 22C31.7473 19.6139 30.7982 17.3263 29.1109 15.6391C27.4237 13.9518 25.1361 13.0027 22.75 13C20.5627 13.0025 18.4657 13.8725 16.9191 15.4191C15.3725 16.9657 14.5025 19.0627 14.5 21.25C14.5022 23.2384 15.2931 25.1448 16.6992 26.5508C18.1052 27.9569 20.0116 28.7478 22 28.75C23.7896 28.748 25.5053 28.0362 26.7708 26.7708C28.0362 25.5053 28.748 23.7896 28.75 22C28.7483 20.4092 28.1156 18.8841 26.9907 17.7593C25.8659 16.6344 24.3408 16.0017 22.75 16C21.3581 16.0015 20.0236 16.5551 19.0393 17.5393C18.0551 18.5236 17.5015 19.8581 17.5 21.25C17.5012 22.4431 17.9757 23.587 18.8194 24.4306C19.663 25.2743 20.8069 25.7488 22 25.75C22.4925 25.75 22.9801 25.653 23.4351 25.4645C23.89 25.2761 24.3034 24.9999 24.6517 24.6517C24.9999 24.3034 25.2761 23.89 25.4645 23.4351C25.653 22.9801 25.75 22.4925 25.75 22C25.75 21.2044 25.4339 20.4413 24.8713 19.8787C24.3087 19.3161 23.5456 19 22.75 19C22.1533 19 21.581 19.2371 21.159 19.659C20.7371 20.081 20.5 20.6533 20.5 21.25C20.5 21.6478 20.658 22.0294 20.9393 22.3107C21.2206 22.592 21.6022 22.75 22 22.75C22.1989 22.75 22.3897 22.671 22.5303 22.5303C22.671 22.3897 22.75 22.1989 22.75 22C22.5511 22 22.3603 21.921 22.2197 21.7803C22.079 21.6397 22 21.4489 22 21.25C22 21.0511 22.079 20.8603 22.2197 20.7197C22.3603 20.579 22.5511 20.5 22.75 20.5C23.1478 20.5 23.5294 20.658 23.8107 20.9393C24.092 21.2206 24.25 21.6022 24.25 22C24.25 22.5967 24.0129 23.169 23.591 23.591C23.169 24.0129 22.5967 24.25 22 24.25C21.2044 24.25 20.4413 23.9339 19.8787 23.3713C19.3161 22.8087 19 22.0456 19 21.25C19 20.2554 19.3951 19.3016 20.0983 18.5983C20.8016 17.8951 21.7554 17.5 22.75 17.5C23.9431 17.5012 25.087 17.9757 25.9306 18.8194C26.7743 19.663 27.2488 20.8069 27.25 22C27.2485 23.3919 26.6949 24.7264 25.7107 25.7107C24.7264 26.6949 23.3919 27.2485 22 27.25C20.4092 27.2483 18.8841 26.6156 17.7593 25.4907C16.6344 24.3659 16.0017 22.8408 16 21.25C16.002 19.4604 16.7138 17.7447 17.9792 16.4792C19.2447 15.2138 20.9604 14.502 22.75 14.5C24.7384 14.5022 26.6448 15.2931 28.0508 16.6992C29.4569 18.1052 30.2478 20.0116 30.25 22C30.2475 24.1873 29.3775 26.2843 27.8309 27.8309C26.2843 29.3775 24.1873 30.2475 22 30.25C19.6139 30.2473 17.3263 29.2982 15.6391 27.6109C13.9518 25.9237 13.0027 23.6361 13 21.25C13.0027 18.665 14.0308 16.1866 15.8587 14.3587C17.6866 12.5308 20.165 11.5027 22.75 11.5C25.5339 11.503 28.2028 12.6102 30.1713 14.5787C32.1398 16.5472 33.247 19.2161 33.25 22Z" fill="white"/>
</svg>
