<svg width="17" height="17" viewBox="0 0 17 17" fill="none" xmlns="http://www.w3.org/2000/svg">
<g clip-path="url(#clip0_1987_3491)">
<path d="M14.6782 12.0742C14.4439 12.6155 14.1666 13.1138 13.8452 13.5719C13.4072 14.1964 13.0486 14.6287 12.7722 14.8687C12.3438 15.2627 11.8847 15.4645 11.3932 15.476C11.0403 15.476 10.6147 15.3756 10.1193 15.1719C9.62228 14.9691 9.16553 14.8687 8.74789 14.8687C8.30988 14.8687 7.84012 14.9691 7.33765 15.1719C6.83442 15.3756 6.42902 15.4817 6.11907 15.4923C5.64768 15.5123 5.17783 15.3048 4.70883 14.8687C4.4095 14.6076 4.03508 14.16 3.58655 13.526C3.10532 12.8489 2.70968 12.0637 2.39972 11.1686C2.06777 10.2017 1.90137 9.26543 1.90137 8.359C1.90137 7.32069 2.12573 6.42516 2.57512 5.67471C2.9283 5.07192 3.39815 4.59642 3.98621 4.24735C4.57427 3.89828 5.20967 3.7204 5.89394 3.70902C6.26836 3.70902 6.75935 3.82483 7.3695 4.05245C7.97793 4.28082 8.3686 4.39664 8.53988 4.39664C8.66794 4.39664 9.10193 4.26122 9.83765 3.99124C10.5334 3.74087 11.1206 3.6372 11.6016 3.67803C12.9051 3.78323 13.8845 4.29708 14.5357 5.22283C13.3699 5.92919 12.7933 6.91854 12.8047 8.18772C12.8153 9.1763 13.1739 9.99895 13.8787 10.6521C14.1981 10.9553 14.5549 11.1896 14.9517 11.356C14.8657 11.6056 14.7748 11.8447 14.6782 12.0742ZM11.6887 0.310139C11.6887 1.08499 11.4056 1.80846 10.8413 2.4781C10.1604 3.27417 9.33681 3.73417 8.44367 3.66158C8.43229 3.56863 8.42569 3.47079 8.42569 3.36798C8.42569 2.62413 8.74951 1.82806 9.32457 1.17717C9.61167 0.84761 9.9768 0.573586 10.4196 0.354992C10.8614 0.139659 11.2794 0.0205757 11.6724 0.000183105C11.6839 0.103768 11.6887 0.207359 11.6887 0.310129V0.310139Z" fill="black"/>
</g>
<defs>
<clipPath id="clip0_1987_3491">
<rect width="16.9019" height="16.9019" fill="white"/>
</clipPath>
</defs>
</svg>
