<svg width="70" height="67" viewBox="0 0 70 67" fill="none" xmlns="http://www.w3.org/2000/svg">
<path d="M35.0977 33.3638V62.0499" stroke="#A1D9FF" stroke-width="2.01602" stroke-linecap="round"/>
<path d="M15.5993 3.97406C10.2484 2.88787 7.57296 2.34477 5.28966 4.42946C3.0127 6.51078 3.0127 9.89418 3.0127 16.661V40.979C3.0127 47.1656 3.0127 50.2589 4.47691 52.1918C5.93797 54.1214 9.15735 54.7758 15.6024 56.0846C21.3423 57.2518 25.8235 59.1071 29.0682 60.9759C32.2623 62.8143 33.8561 63.7319 34.6373 63.7319C35.4184 63.7319 37.0154 62.8143 40.2032 60.9759C43.451 59.1104 47.9322 57.2518 53.6753 56.0846C60.114 54.7758 63.3366 54.1214 64.7976 52.1918C66.2618 50.2589 66.2618 47.1656 66.2618 40.979V16.661C66.2618 9.89418 66.2618 6.51078 63.9849 4.42946C61.7016 2.34477 59.0261 2.88787 53.6753 3.97406" stroke="#A1D9FF" stroke-width="6.02508" stroke-linecap="round" stroke-linejoin="round"/>
<mask id="path-3-inside-1_1784_3257" fill="white">
<path d="M32.2654 29.9987C32.2654 29.3277 32.0155 28.6842 31.5707 28.2097C31.1259 27.7353 30.5226 27.4687 29.8936 27.4687C29.2645 27.4687 28.6612 27.7353 28.2164 28.2097C27.7716 28.6842 27.5217 29.3277 27.5217 29.9987H32.2654ZM27.5217 36.7453C27.5217 37.4162 27.7716 38.0597 28.2164 38.5342C28.6612 39.0087 29.2645 39.2752 29.8936 39.2752C30.5226 39.2752 31.1259 39.0087 31.5707 38.5342C32.0155 38.0597 32.2654 37.4162 32.2654 36.7453H27.5217ZM41.7528 29.9987C41.7528 29.3277 41.5029 28.6842 41.0581 28.2097C40.6133 27.7353 40.01 27.4687 39.3809 27.4687C38.7519 27.4687 38.1486 27.7353 37.7038 28.2097C37.259 28.6842 37.0091 29.3277 37.0091 29.9987H41.7528ZM37.0091 36.7453C37.0091 37.4162 37.259 38.0597 37.7038 38.5342C38.1486 39.0087 38.7519 39.2752 39.3809 39.2752C40.01 39.2752 40.6133 39.0087 41.0581 38.5342C41.5029 38.0597 41.7528 37.4162 41.7528 36.7453H37.0091ZM32.2654 3.01239C32.2654 2.3414 32.0155 1.69789 31.5707 1.22343C31.1259 0.748971 30.5226 0.482422 29.8936 0.482422C29.2645 0.482422 28.6612 0.748971 28.2164 1.22343C27.7716 1.69789 27.5217 2.3414 27.5217 3.01239H32.2654ZM27.5217 9.75896C27.5217 10.4299 27.7716 11.0735 28.2164 11.5479C28.6612 12.0224 29.2645 12.2889 29.8936 12.2889C30.5226 12.2889 31.1259 12.0224 31.5707 11.5479C32.0155 11.0735 32.2654 10.4299 32.2654 9.75896H27.5217ZM41.7528 3.01239C41.7528 2.3414 41.5029 1.69789 41.0581 1.22343C40.6133 0.748971 40.01 0.482422 39.3809 0.482422C38.7519 0.482422 38.1486 0.748971 37.7038 1.22343C37.259 1.69789 37.0091 2.3414 37.0091 3.01239H41.7528ZM37.0091 9.75896C37.0091 10.4299 37.259 11.0735 37.7038 11.5479C38.1486 12.0224 38.7519 12.2889 39.3809 12.2889C40.01 12.2889 40.6133 12.0224 41.0581 11.5479C41.5029 11.0735 41.7528 10.4299 41.7528 9.75896H37.0091ZM25.1499 17.3489C25.7789 17.3489 26.3822 17.0823 26.827 16.6078C27.2718 16.1334 27.5217 15.4899 27.5217 14.8189C27.5217 14.1479 27.2718 13.5044 26.827 13.0299C26.3822 12.5555 25.7789 12.2889 25.1499 12.2889V17.3489ZM18.825 12.2889C18.1959 12.2889 17.5926 12.5555 17.1478 13.0299C16.703 13.5044 16.4531 14.1479 16.4531 14.8189C16.4531 15.4899 16.703 16.1334 17.1478 16.6078C17.5926 17.0823 18.1959 17.3489 18.825 17.3489V12.2889ZM25.1499 27.4687C25.7789 27.4687 26.3822 27.2022 26.827 26.7277C27.2718 26.2532 27.5217 25.6097 27.5217 24.9388C27.5217 24.2678 27.2718 23.6243 26.827 23.1498C26.3822 22.6753 25.7789 22.4088 25.1499 22.4088V27.4687ZM18.825 22.4088C18.1959 22.4088 17.5926 22.6753 17.1478 23.1498C16.703 23.6243 16.4531 24.2678 16.4531 24.9388C16.4531 25.6097 16.703 26.2532 17.1478 26.7277C17.5926 27.2022 18.1959 27.4687 18.825 27.4687V22.4088ZM50.4495 17.3489C51.0786 17.3489 51.6819 17.0823 52.1267 16.6078C52.5715 16.1334 52.8214 15.4899 52.8214 14.8189C52.8214 14.1479 52.5715 13.5044 52.1267 13.0299C51.6819 12.5555 51.0786 12.2889 50.4495 12.2889V17.3489ZM44.1246 12.2889C43.4956 12.2889 42.8923 12.5555 42.4475 13.0299C42.0027 13.5044 41.7528 14.1479 41.7528 14.8189C41.7528 15.4899 42.0027 16.1334 42.4475 16.6078C42.8923 17.0823 43.4956 17.3489 44.1246 17.3489V12.2889ZM50.4495 27.4687C51.0786 27.4687 51.6819 27.2022 52.1267 26.7277C52.5715 26.2532 52.8214 25.6097 52.8214 24.9388C52.8214 24.2678 52.5715 23.6243 52.1267 23.1498C51.6819 22.6753 51.0786 22.4088 50.4495 22.4088V27.4687ZM44.1246 22.4088C43.4956 22.4088 42.8923 22.6753 42.4475 23.1498C42.0027 23.6243 41.7528 24.2678 41.7528 24.9388C41.7528 25.6097 42.0027 26.2532 42.4475 26.7277C42.8923 27.2022 43.4956 27.4687 44.1246 27.4687V22.4088ZM31.4748 12.2889H37.7997V7.229H31.4748V12.2889ZM41.7528 16.5055V23.2521H46.4965V16.5055H41.7528ZM37.7997 27.4687H31.4748V32.5286H37.7997V27.4687ZM27.5217 23.2521V16.5055H22.778V23.2521H27.5217ZM31.4748 27.4687C29.9157 27.4687 28.9859 27.462 28.3218 27.3675C28.1269 27.3463 27.9355 27.2975 27.7526 27.2225L24.4004 30.7982C25.3776 31.8439 26.5635 32.2217 27.6893 32.3836C28.7456 32.5354 30.0517 32.5286 31.4748 32.5286V27.4687ZM22.778 23.2521C22.778 24.7701 22.7717 26.1633 22.914 27.2899C23.0658 28.4908 23.42 29.7558 24.4004 30.7982L27.7526 27.2225L27.7494 27.2123L27.7336 27.1786C27.6732 26.9966 27.6339 26.8075 27.6166 26.6153C27.528 25.9069 27.5217 24.9151 27.5217 23.2521H22.778ZM41.7528 23.2521C41.7528 24.9151 41.7465 25.9069 41.6579 26.6153C41.638 26.8232 41.5922 27.0274 41.5219 27.2225L44.8741 30.7982C45.8545 29.7558 46.2087 28.4908 46.3605 27.2899C46.5028 26.1633 46.4965 24.7701 46.4965 23.2521H41.7528ZM37.7997 32.5286C39.2228 32.5286 40.5289 32.5354 41.5852 32.3836C42.711 32.2217 43.8969 31.8439 44.8741 30.7982L41.5219 27.2225L41.5124 27.2258L41.4808 27.2427C41.3102 27.3072 41.1328 27.3491 40.9527 27.3675C40.2886 27.462 39.3588 27.4687 37.7997 27.4687V32.5286ZM37.7997 12.2889C39.3588 12.2889 40.2886 12.2957 40.9527 12.3901C41.1442 12.4112 41.3324 12.4588 41.5124 12.5318L41.5219 12.5352L44.8741 8.95949C43.8969 7.91377 42.711 7.53597 41.5852 7.37405C40.5289 7.22225 39.2228 7.229 37.7997 7.229V12.2889ZM46.4965 16.5055C46.4965 14.9876 46.5028 13.5944 46.3605 12.4677C46.2087 11.2668 45.8545 10.0018 44.8741 8.95949L41.5219 12.5352L41.5251 12.5453L41.5409 12.579C41.5694 12.6532 41.6168 12.8152 41.6579 13.1424C41.7465 13.8508 41.7528 14.8425 41.7528 16.5055H46.4965ZM31.4748 7.229C30.0517 7.229 28.7456 7.22225 27.6893 7.37405C26.5635 7.53597 25.3776 7.91377 24.4004 8.95949L27.7526 12.5352L27.7621 12.5318L27.7937 12.5149C27.9643 12.4505 28.1417 12.4085 28.3218 12.3901C28.9859 12.2957 29.9157 12.2889 31.4748 12.2889V7.229ZM27.5217 16.5055C27.5217 14.8425 27.528 13.8508 27.6166 13.1424C27.6365 12.9344 27.6823 12.7303 27.7526 12.5352L24.4004 8.95949C23.42 10.0018 23.0658 11.2668 22.914 12.4677C22.7717 13.5944 22.778 14.9876 22.778 16.5055H27.5217ZM27.5217 29.9987V36.7453H32.2654V29.9987H27.5217ZM37.0091 29.9987V36.7453H41.7528V29.9987H37.0091ZM27.5217 3.01239V9.75896H32.2654V3.01239H27.5217ZM37.0091 3.01239V9.75896H41.7528V3.01239H37.0091ZM25.1499 12.2889H18.825V17.3489H25.1499V12.2889ZM25.1499 22.4088H18.825V27.4687H25.1499V22.4088ZM50.4495 12.2889H44.1246V17.3489H50.4495V12.2889ZM50.4495 22.4088H44.1246V27.4687H50.4495V22.4088Z"/>
</mask>
<path d="M32.2654 29.9987C32.2654 29.3277 32.0155 28.6842 31.5707 28.2097C31.1259 27.7353 30.5226 27.4687 29.8936 27.4687C29.2645 27.4687 28.6612 27.7353 28.2164 28.2097C27.7716 28.6842 27.5217 29.3277 27.5217 29.9987H32.2654ZM27.5217 36.7453C27.5217 37.4162 27.7716 38.0597 28.2164 38.5342C28.6612 39.0087 29.2645 39.2752 29.8936 39.2752C30.5226 39.2752 31.1259 39.0087 31.5707 38.5342C32.0155 38.0597 32.2654 37.4162 32.2654 36.7453H27.5217ZM41.7528 29.9987C41.7528 29.3277 41.5029 28.6842 41.0581 28.2097C40.6133 27.7353 40.01 27.4687 39.3809 27.4687C38.7519 27.4687 38.1486 27.7353 37.7038 28.2097C37.259 28.6842 37.0091 29.3277 37.0091 29.9987H41.7528ZM37.0091 36.7453C37.0091 37.4162 37.259 38.0597 37.7038 38.5342C38.1486 39.0087 38.7519 39.2752 39.3809 39.2752C40.01 39.2752 40.6133 39.0087 41.0581 38.5342C41.5029 38.0597 41.7528 37.4162 41.7528 36.7453H37.0091ZM32.2654 3.01239C32.2654 2.3414 32.0155 1.69789 31.5707 1.22343C31.1259 0.748971 30.5226 0.482422 29.8936 0.482422C29.2645 0.482422 28.6612 0.748971 28.2164 1.22343C27.7716 1.69789 27.5217 2.3414 27.5217 3.01239H32.2654ZM27.5217 9.75896C27.5217 10.4299 27.7716 11.0735 28.2164 11.5479C28.6612 12.0224 29.2645 12.2889 29.8936 12.2889C30.5226 12.2889 31.1259 12.0224 31.5707 11.5479C32.0155 11.0735 32.2654 10.4299 32.2654 9.75896H27.5217ZM41.7528 3.01239C41.7528 2.3414 41.5029 1.69789 41.0581 1.22343C40.6133 0.748971 40.01 0.482422 39.3809 0.482422C38.7519 0.482422 38.1486 0.748971 37.7038 1.22343C37.259 1.69789 37.0091 2.3414 37.0091 3.01239H41.7528ZM37.0091 9.75896C37.0091 10.4299 37.259 11.0735 37.7038 11.5479C38.1486 12.0224 38.7519 12.2889 39.3809 12.2889C40.01 12.2889 40.6133 12.0224 41.0581 11.5479C41.5029 11.0735 41.7528 10.4299 41.7528 9.75896H37.0091ZM25.1499 17.3489C25.7789 17.3489 26.3822 17.0823 26.827 16.6078C27.2718 16.1334 27.5217 15.4899 27.5217 14.8189C27.5217 14.1479 27.2718 13.5044 26.827 13.0299C26.3822 12.5555 25.7789 12.2889 25.1499 12.2889V17.3489ZM18.825 12.2889C18.1959 12.2889 17.5926 12.5555 17.1478 13.0299C16.703 13.5044 16.4531 14.1479 16.4531 14.8189C16.4531 15.4899 16.703 16.1334 17.1478 16.6078C17.5926 17.0823 18.1959 17.3489 18.825 17.3489V12.2889ZM25.1499 27.4687C25.7789 27.4687 26.3822 27.2022 26.827 26.7277C27.2718 26.2532 27.5217 25.6097 27.5217 24.9388C27.5217 24.2678 27.2718 23.6243 26.827 23.1498C26.3822 22.6753 25.7789 22.4088 25.1499 22.4088V27.4687ZM18.825 22.4088C18.1959 22.4088 17.5926 22.6753 17.1478 23.1498C16.703 23.6243 16.4531 24.2678 16.4531 24.9388C16.4531 25.6097 16.703 26.2532 17.1478 26.7277C17.5926 27.2022 18.1959 27.4687 18.825 27.4687V22.4088ZM50.4495 17.3489C51.0786 17.3489 51.6819 17.0823 52.1267 16.6078C52.5715 16.1334 52.8214 15.4899 52.8214 14.8189C52.8214 14.1479 52.5715 13.5044 52.1267 13.0299C51.6819 12.5555 51.0786 12.2889 50.4495 12.2889V17.3489ZM44.1246 12.2889C43.4956 12.2889 42.8923 12.5555 42.4475 13.0299C42.0027 13.5044 41.7528 14.1479 41.7528 14.8189C41.7528 15.4899 42.0027 16.1334 42.4475 16.6078C42.8923 17.0823 43.4956 17.3489 44.1246 17.3489V12.2889ZM50.4495 27.4687C51.0786 27.4687 51.6819 27.2022 52.1267 26.7277C52.5715 26.2532 52.8214 25.6097 52.8214 24.9388C52.8214 24.2678 52.5715 23.6243 52.1267 23.1498C51.6819 22.6753 51.0786 22.4088 50.4495 22.4088V27.4687ZM44.1246 22.4088C43.4956 22.4088 42.8923 22.6753 42.4475 23.1498C42.0027 23.6243 41.7528 24.2678 41.7528 24.9388C41.7528 25.6097 42.0027 26.2532 42.4475 26.7277C42.8923 27.2022 43.4956 27.4687 44.1246 27.4687V22.4088ZM31.4748 12.2889H37.7997V7.229H31.4748V12.2889ZM41.7528 16.5055V23.2521H46.4965V16.5055H41.7528ZM37.7997 27.4687H31.4748V32.5286H37.7997V27.4687ZM27.5217 23.2521V16.5055H22.778V23.2521H27.5217ZM31.4748 27.4687C29.9157 27.4687 28.9859 27.462 28.3218 27.3675C28.1269 27.3463 27.9355 27.2975 27.7526 27.2225L24.4004 30.7982C25.3776 31.8439 26.5635 32.2217 27.6893 32.3836C28.7456 32.5354 30.0517 32.5286 31.4748 32.5286V27.4687ZM22.778 23.2521C22.778 24.7701 22.7717 26.1633 22.914 27.2899C23.0658 28.4908 23.42 29.7558 24.4004 30.7982L27.7526 27.2225L27.7494 27.2123L27.7336 27.1786C27.6732 26.9966 27.6339 26.8075 27.6166 26.6153C27.528 25.9069 27.5217 24.9151 27.5217 23.2521H22.778ZM41.7528 23.2521C41.7528 24.9151 41.7465 25.9069 41.6579 26.6153C41.638 26.8232 41.5922 27.0274 41.5219 27.2225L44.8741 30.7982C45.8545 29.7558 46.2087 28.4908 46.3605 27.2899C46.5028 26.1633 46.4965 24.7701 46.4965 23.2521H41.7528ZM37.7997 32.5286C39.2228 32.5286 40.5289 32.5354 41.5852 32.3836C42.711 32.2217 43.8969 31.8439 44.8741 30.7982L41.5219 27.2225L41.5124 27.2258L41.4808 27.2427C41.3102 27.3072 41.1328 27.3491 40.9527 27.3675C40.2886 27.462 39.3588 27.4687 37.7997 27.4687V32.5286ZM37.7997 12.2889C39.3588 12.2889 40.2886 12.2957 40.9527 12.3901C41.1442 12.4112 41.3324 12.4588 41.5124 12.5318L41.5219 12.5352L44.8741 8.95949C43.8969 7.91377 42.711 7.53597 41.5852 7.37405C40.5289 7.22225 39.2228 7.229 37.7997 7.229V12.2889ZM46.4965 16.5055C46.4965 14.9876 46.5028 13.5944 46.3605 12.4677C46.2087 11.2668 45.8545 10.0018 44.8741 8.95949L41.5219 12.5352L41.5251 12.5453L41.5409 12.579C41.5694 12.6532 41.6168 12.8152 41.6579 13.1424C41.7465 13.8508 41.7528 14.8425 41.7528 16.5055H46.4965ZM31.4748 7.229C30.0517 7.229 28.7456 7.22225 27.6893 7.37405C26.5635 7.53597 25.3776 7.91377 24.4004 8.95949L27.7526 12.5352L27.7621 12.5318L27.7937 12.5149C27.9643 12.4505 28.1417 12.4085 28.3218 12.3901C28.9859 12.2957 29.9157 12.2889 31.4748 12.2889V7.229ZM27.5217 16.5055C27.5217 14.8425 27.528 13.8508 27.6166 13.1424C27.6365 12.9344 27.6823 12.7303 27.7526 12.5352L24.4004 8.95949C23.42 10.0018 23.0658 11.2668 22.914 12.4677C22.7717 13.5944 22.778 14.9876 22.778 16.5055H27.5217ZM27.5217 29.9987V36.7453H32.2654V29.9987H27.5217ZM37.0091 29.9987V36.7453H41.7528V29.9987H37.0091ZM27.5217 3.01239V9.75896H32.2654V3.01239H27.5217ZM37.0091 3.01239V9.75896H41.7528V3.01239H37.0091ZM25.1499 12.2889H18.825V17.3489H25.1499V12.2889ZM25.1499 22.4088H18.825V27.4687H25.1499V22.4088ZM50.4495 12.2889H44.1246V17.3489H50.4495V12.2889ZM50.4495 22.4088H44.1246V27.4687H50.4495V22.4088Z" fill="#0072CE"/>
<path d="M26.0765 29.0103L26.3207 29.2392L27.9968 27.4514L27.7526 27.2225L27.5084 26.9935L25.8323 28.7814L26.0765 29.0103ZM43.198 29.0103L43.4422 28.7814L41.7661 26.9935L41.5219 27.2225L41.2777 27.4514L42.9538 29.2392L43.198 29.0103ZM43.198 10.7473L42.9538 10.5184L41.2777 12.3062L41.5219 12.5352L41.7661 12.7641L43.4422 10.9763L43.198 10.7473ZM27.5217 29.9987V30.3334H32.2654V29.9987V29.664H27.5217V29.9987ZM32.2654 36.7453V36.4105H27.5217V36.7453V37.08H32.2654V36.7453ZM37.0091 29.9987V30.3334H41.7528V29.9987V29.664H37.0091V29.9987ZM41.7528 36.7453V36.4105H37.0091V36.7453V37.08H41.7528V36.7453ZM27.5217 3.01239V3.34711H32.2654V3.01239V2.67766H27.5217V3.01239ZM32.2654 9.75896V9.42423H27.5217V9.75896V10.0937H32.2654V9.75896ZM37.0091 3.01239V3.34711H41.7528V3.01239V2.67766H37.0091V3.01239ZM41.7528 9.75896V9.42423H37.0091V9.75896V10.0937H41.7528V9.75896ZM25.1499 12.2889H24.8152V17.3489H25.1499H25.4846V12.2889H25.1499ZM18.825 17.3489H19.1597V12.2889H18.825H18.4902V17.3489H18.825ZM25.1499 22.4088H24.8152V27.4687H25.1499H25.4846V22.4088H25.1499ZM18.825 27.4687H19.1597V22.4088H18.825H18.4902V27.4687H18.825ZM50.4495 12.2889H50.1148V17.3489H50.4495H50.7843V12.2889H50.4495ZM44.1246 17.3489H44.4593V12.2889H44.1246H43.7899V17.3489H44.1246ZM50.4495 22.4088H50.1148V27.4687H50.4495H50.7843V22.4088H50.4495ZM44.1246 27.4687H44.4593V22.4088H44.1246H43.7899V27.4687H44.1246ZM37.7997 12.2889H38.1344V7.229H37.7997H37.465V12.2889H37.7997ZM31.4748 7.229H31.1401V12.2889H31.4748H31.8095V7.229H31.4748ZM41.7528 23.2521V23.5868H46.4965V23.2521V22.9174H41.7528V23.2521ZM46.4965 16.5055V16.1708H41.7528V16.5055V16.8403H46.4965V16.5055ZM31.4748 27.4687H31.1401V32.5286H31.4748H31.8095V27.4687H31.4748ZM37.7997 32.5286H38.1344V27.4687H37.7997H37.465V32.5286H37.7997ZM27.5217 16.5055V16.1708H22.778V16.5055V16.8403H27.5217V16.5055ZM22.778 23.2521V23.5868H27.5217V23.2521V22.9174H22.778V23.2521ZM27.7526 27.2225L27.5084 26.9935L24.1562 30.5692L24.4004 30.7982L24.6446 31.0271L27.9968 27.4514L27.7526 27.2225ZM41.5219 27.2225L41.2777 27.4514L44.6299 31.0271L44.8741 30.7982L45.1183 30.5692L41.7661 26.9935L41.5219 27.2225ZM41.5219 12.5352L41.7661 12.7641L45.1183 9.18843L44.8741 8.95949L44.6299 8.73056L41.2777 12.3062L41.5219 12.5352ZM24.4004 8.95949L24.1562 9.18843L27.5084 12.7641L27.7526 12.5352L27.9968 12.3062L24.6446 8.73056L24.4004 8.95949ZM27.7526 27.2225L27.1136 27.4222L27.2075 27.7225L27.4986 27.8419L27.7526 27.2225ZM41.5219 27.2225L41.7463 27.8532L42.0444 27.7472L42.1517 27.4495L41.5219 27.2225ZM41.5219 12.5352L42.1609 12.3354L42.0611 12.0164L41.7462 11.9044L41.5219 12.5352ZM29.8936 12.2889V12.9584V12.2889ZM39.3809 12.2889V12.9584V12.2889ZM25.1499 17.3489V18.0183V17.3489ZM25.1499 12.2889V11.6195V12.2889ZM18.825 12.2889V11.6195V12.2889ZM16.4531 14.8189H15.7837H16.4531ZM16.4531 24.9388H15.7837H16.4531ZM50.4495 17.3489V18.0183V17.3489ZM50.4495 12.2889V11.6195V12.2889ZM44.1246 12.2889V11.6195V12.2889ZM28.3218 27.3675L28.4161 26.7047L28.4053 26.7032L28.3944 26.702L28.3218 27.3675ZM24.4004 30.7982L24.8895 30.3411L24.888 30.3395L24.4004 30.7982ZM27.6893 32.3836L27.594 33.0462L27.5941 33.0462L27.6893 32.3836ZM22.914 27.2899L22.2498 27.3738L22.2499 27.3739L22.914 27.2899ZM27.7494 27.2123L28.3884 27.0126L28.3748 26.9693L28.3556 26.9283L27.7494 27.2123ZM27.7336 27.1786L27.0983 27.3897L27.1107 27.427L27.1274 27.4627L27.7336 27.1786ZM27.6166 26.6153L28.2834 26.5554L28.2823 26.5438L28.2809 26.5322L27.6166 26.6153ZM41.6579 26.6153L40.9936 26.5322L40.9924 26.5418L40.9915 26.5514L41.6579 26.6153ZM44.8741 30.7982L44.3865 30.3395L44.385 30.3411L44.8741 30.7982ZM46.3605 27.2899L47.0246 27.3739L47.0247 27.3738L46.3605 27.2899ZM41.5852 32.3836L41.6804 33.0462L41.6805 33.0462L41.5852 32.3836ZM41.5124 27.2258L41.2881 26.5951L41.2413 26.6117L41.1974 26.6351L41.5124 27.2258ZM41.4808 27.2427L41.7175 27.8689L41.7578 27.8537L41.7958 27.8334L41.4808 27.2427ZM40.9527 27.3675L40.8846 26.7015L40.8715 26.7029L40.8584 26.7047L40.9527 27.3675ZM40.9527 12.3901L40.8584 13.0529L40.869 13.0544L40.8795 13.0556L40.9527 12.3901ZM41.5124 12.5318L41.2609 13.1522L41.2744 13.1577L41.2882 13.1626L41.5124 12.5318ZM44.8741 8.95949L44.385 9.41657L44.3865 9.41815L44.8741 8.95949ZM41.5852 7.37405L41.6805 6.71141L41.6804 6.7114L41.5852 7.37405ZM46.3605 12.4677L47.0247 12.3838L47.0246 12.3838L46.3605 12.4677ZM41.5251 12.5453L40.8861 12.745L40.8997 12.7883L40.9189 12.8294L41.5251 12.5453ZM41.5409 12.579L42.166 12.3393L42.1573 12.3168L42.1471 12.2949L41.5409 12.579ZM41.6579 13.1424L42.3222 13.0593L42.3221 13.0589L41.6579 13.1424ZM27.6893 7.37405L27.5941 6.7114L27.594 6.71141L27.6893 7.37405ZM24.4004 8.95949L24.888 9.41815L24.8895 9.41657L24.4004 8.95949ZM27.7526 12.5352L27.5283 11.9044L27.2301 12.0104L27.1228 12.3082L27.7526 12.5352ZM27.7621 12.5318L27.9863 13.1626L28.0332 13.1459L28.0771 13.1225L27.7621 12.5318ZM27.7937 12.5149L27.557 11.8887L27.5167 11.904L27.4787 11.9242L27.7937 12.5149ZM28.3218 12.3901L28.3899 13.0561L28.403 13.0548L28.4161 13.0529L28.3218 12.3901ZM27.6166 13.1424L28.2809 13.2254L28.2821 13.2158L28.283 13.2063L27.6166 13.1424ZM22.914 12.4677L22.2499 12.3838L22.2498 12.3838L22.914 12.4677ZM32.2654 29.9987H32.9349C32.9349 29.1636 32.6243 28.3547 32.0591 27.7519L31.5707 28.2097L31.0823 28.6676C31.4068 29.0137 31.596 29.4918 31.596 29.9987H32.2654ZM31.5707 28.2097L32.0591 27.7519C31.4926 27.1476 30.7146 26.7993 29.8936 26.7993V27.4687V28.1382C30.3306 28.1382 30.7592 28.323 31.0823 28.6676L31.5707 28.2097ZM29.8936 27.4687V26.7993C29.0725 26.7993 28.2946 27.1476 27.728 27.7519L28.2164 28.2097L28.7048 28.6676C29.0279 28.323 29.4565 28.1382 29.8936 28.1382V27.4687ZM28.2164 28.2097L27.728 27.7519C27.1629 28.3547 26.8523 29.1636 26.8523 29.9987H27.5217H28.1912C28.1912 29.4918 28.3804 29.0137 28.7048 28.6676L28.2164 28.2097ZM27.5217 36.7453H26.8523C26.8523 37.5804 27.1629 38.3892 27.728 38.9921L28.2164 38.5342L28.7048 38.0763C28.3804 37.7303 28.1912 37.2521 28.1912 36.7453H27.5217ZM28.2164 38.5342L27.728 38.9921C28.2946 39.5964 29.0725 39.9447 29.8936 39.9447V39.2752V38.6058C29.4565 38.6058 29.0279 38.421 28.7048 38.0763L28.2164 38.5342ZM29.8936 39.2752V39.9447C30.7146 39.9447 31.4926 39.5964 32.0591 38.9921L31.5707 38.5342L31.0823 38.0763C30.7592 38.421 30.3306 38.6058 29.8936 38.6058V39.2752ZM31.5707 38.5342L32.0591 38.9921C32.6243 38.3892 32.9349 37.5804 32.9349 36.7453H32.2654H31.596C31.596 37.2521 31.4068 37.7303 31.0823 38.0763L31.5707 38.5342ZM41.7528 29.9987H42.4222C42.4222 29.1636 42.1116 28.3547 41.5465 27.7519L41.0581 28.2097L40.5697 28.6676C40.8941 29.0137 41.0833 29.4918 41.0833 29.9987H41.7528ZM41.0581 28.2097L41.5465 27.7519C40.9799 27.1476 40.202 26.7993 39.3809 26.7993V27.4687V28.1382C39.818 28.1382 40.2466 28.323 40.5697 28.6676L41.0581 28.2097ZM39.3809 27.4687V26.7993C38.5599 26.7993 37.7819 27.1476 37.2154 27.7519L37.7038 28.2097L38.1922 28.6676C38.5153 28.323 38.9439 28.1382 39.3809 28.1382V27.4687ZM37.7038 28.2097L37.2154 27.7519C36.6502 28.3547 36.3396 29.1636 36.3396 29.9987H37.0091H37.6785C37.6785 29.4918 37.8677 29.0137 38.1922 28.6676L37.7038 28.2097ZM37.0091 36.7453H36.3396C36.3396 37.5804 36.6502 38.3892 37.2154 38.9921L37.7038 38.5342L38.1922 38.0763C37.8677 37.7303 37.6785 37.2521 37.6785 36.7453H37.0091ZM37.7038 38.5342L37.2154 38.9921C37.7819 39.5964 38.5599 39.9447 39.3809 39.9447V39.2752V38.6058C38.9439 38.6058 38.5153 38.421 38.1922 38.0763L37.7038 38.5342ZM39.3809 39.2752V39.9447C40.202 39.9447 40.9799 39.5964 41.5465 38.9921L41.0581 38.5342L40.5697 38.0763C40.2466 38.421 39.818 38.6058 39.3809 38.6058V39.2752ZM41.0581 38.5342L41.5465 38.9921C42.1116 38.3892 42.4222 37.5804 42.4222 36.7453H41.7528H41.0833C41.0833 37.2521 40.8941 37.7303 40.5697 38.0763L41.0581 38.5342ZM32.2654 3.01239H32.9349C32.9349 2.17729 32.6243 1.36839 32.0591 0.765564L31.5707 1.22343L31.0823 1.6813C31.4068 2.02739 31.596 2.50551 31.596 3.01239H32.2654ZM31.5707 1.22343L32.0591 0.765564C31.4926 0.161271 30.7146 -0.187032 29.8936 -0.187032V0.482422V1.15188C30.3306 1.15188 30.7592 1.33667 31.0823 1.6813L31.5707 1.22343ZM29.8936 0.482422V-0.187032C29.0725 -0.187032 28.2946 0.161271 27.728 0.765564L28.2164 1.22343L28.7048 1.6813C29.0279 1.33667 29.4565 1.15188 29.8936 1.15188V0.482422ZM28.2164 1.22343L27.728 0.765564C27.1629 1.36839 26.8523 2.17729 26.8523 3.01239H27.5217H28.1912C28.1912 2.50551 28.3804 2.02739 28.7048 1.6813L28.2164 1.22343ZM27.5217 9.75896H26.8523C26.8523 10.5941 27.1629 11.403 27.728 12.0058L28.2164 11.5479L28.7048 11.09C28.3804 10.744 28.1912 10.2658 28.1912 9.75896H27.5217ZM28.2164 11.5479L27.728 12.0058C28.2946 12.6101 29.0725 12.9584 29.8936 12.9584V12.2889V11.6195C29.4565 11.6195 29.0279 11.4347 28.7048 11.09L28.2164 11.5479ZM29.8936 12.2889V12.9584C30.7146 12.9584 31.4926 12.6101 32.0591 12.0058L31.5707 11.5479L31.0823 11.09C30.7592 11.4347 30.3306 11.6195 29.8936 11.6195V12.2889ZM31.5707 11.5479L32.0591 12.0058C32.6243 11.403 32.9349 10.5941 32.9349 9.75896H32.2654H31.596C31.596 10.2658 31.4068 10.744 31.0823 11.09L31.5707 11.5479ZM41.7528 3.01239H42.4222C42.4222 2.17729 42.1116 1.36839 41.5465 0.765564L41.0581 1.22343L40.5697 1.6813C40.8941 2.02739 41.0833 2.50551 41.0833 3.01239H41.7528ZM41.0581 1.22343L41.5465 0.765564C40.9799 0.161271 40.202 -0.187032 39.3809 -0.187032V0.482422V1.15188C39.818 1.15188 40.2466 1.33667 40.5697 1.6813L41.0581 1.22343ZM39.3809 0.482422V-0.187032C38.5599 -0.187032 37.7819 0.161271 37.2154 0.765564L37.7038 1.22343L38.1922 1.6813C38.5153 1.33667 38.9439 1.15188 39.3809 1.15188V0.482422ZM37.7038 1.22343L37.2154 0.765564C36.6502 1.36839 36.3396 2.17729 36.3396 3.01239H37.0091H37.6785C37.6785 2.50551 37.8677 2.02739 38.1922 1.6813L37.7038 1.22343ZM37.0091 9.75896H36.3396C36.3396 10.5941 36.6502 11.403 37.2154 12.0058L37.7038 11.5479L38.1922 11.09C37.8677 10.744 37.6785 10.2658 37.6785 9.75896H37.0091ZM37.7038 11.5479L37.2154 12.0058C37.7819 12.6101 38.5599 12.9584 39.3809 12.9584V12.2889V11.6195C38.9439 11.6195 38.5153 11.4347 38.1922 11.09L37.7038 11.5479ZM39.3809 12.2889V12.9584C40.202 12.9584 40.9799 12.6101 41.5465 12.0058L41.0581 11.5479L40.5697 11.09C40.2466 11.4347 39.818 11.6195 39.3809 11.6195V12.2889ZM41.0581 11.5479L41.5465 12.0058C42.1116 11.403 42.4222 10.5941 42.4222 9.75896H41.7528H41.0833C41.0833 10.2658 40.8941 10.744 40.5697 11.09L41.0581 11.5479ZM25.1499 17.3489V18.0183C25.9709 18.0183 26.7489 17.67 27.3154 17.0657L26.827 16.6078L26.3386 16.15C26.0155 16.4946 25.5869 16.6794 25.1499 16.6794V17.3489ZM26.827 16.6078L27.3154 17.0657C27.8806 16.4629 28.1912 15.654 28.1912 14.8189H27.5217H26.8523C26.8523 15.3258 26.6631 15.8039 26.3386 16.15L26.827 16.6078ZM27.5217 14.8189H28.1912C28.1912 13.9838 27.8806 13.1749 27.3154 12.5721L26.827 13.0299L26.3386 13.4878C26.6631 13.8339 26.8523 14.312 26.8523 14.8189H27.5217ZM26.827 13.0299L27.3154 12.5721C26.7489 11.9678 25.9709 11.6195 25.1499 11.6195V12.2889V12.9584C25.5869 12.9584 26.0155 13.1432 26.3386 13.4878L26.827 13.0299ZM18.825 12.2889V11.6195C18.0039 11.6195 17.226 11.9678 16.6594 12.5721L17.1478 13.0299L17.6362 13.4878C17.9593 13.1432 18.3879 12.9584 18.825 12.9584V12.2889ZM17.1478 13.0299L16.6594 12.5721C16.0943 13.1749 15.7837 13.9838 15.7837 14.8189H16.4531H17.1226C17.1226 14.312 17.3118 13.8339 17.6362 13.4878L17.1478 13.0299ZM16.4531 14.8189H15.7837C15.7837 15.654 16.0943 16.4629 16.6594 17.0657L17.1478 16.6078L17.6362 16.15C17.3118 15.8039 17.1226 15.3258 17.1226 14.8189H16.4531ZM17.1478 16.6078L16.6594 17.0657C17.226 17.67 18.0039 18.0183 18.825 18.0183V17.3489V16.6794C18.3879 16.6794 17.9593 16.4946 17.6362 16.15L17.1478 16.6078ZM25.1499 27.4687V28.1382C25.9709 28.1382 26.7489 27.7899 27.3154 27.1856L26.827 26.7277L26.3386 26.2698C26.0155 26.6145 25.5869 26.7993 25.1499 26.7993V27.4687ZM26.827 26.7277L27.3154 27.1856C27.8806 26.5827 28.1912 25.7739 28.1912 24.9388H27.5217H26.8523C26.8523 25.4456 26.6631 25.9237 26.3386 26.2698L26.827 26.7277ZM27.5217 24.9388H28.1912C28.1912 24.1037 27.8806 23.2948 27.3154 22.6919L26.827 23.1498L26.3386 23.6077C26.6631 23.9538 26.8523 24.4319 26.8523 24.9388H27.5217ZM26.827 23.1498L27.3154 22.6919C26.7489 22.0876 25.9709 21.7393 25.1499 21.7393V22.4088V23.0782C25.5869 23.0782 26.0155 23.263 26.3386 23.6077L26.827 23.1498ZM18.825 22.4088V21.7393C18.0039 21.7393 17.226 22.0876 16.6594 22.6919L17.1478 23.1498L17.6362 23.6077C17.9593 23.263 18.3879 23.0782 18.825 23.0782V22.4088ZM17.1478 23.1498L16.6594 22.6919C16.0943 23.2948 15.7837 24.1037 15.7837 24.9388H16.4531H17.1226C17.1226 24.4319 17.3118 23.9538 17.6362 23.6077L17.1478 23.1498ZM16.4531 24.9388H15.7837C15.7837 25.7738 16.0943 26.5827 16.6594 27.1856L17.1478 26.7277L17.6362 26.2698C17.3118 25.9237 17.1226 25.4456 17.1226 24.9388H16.4531ZM17.1478 26.7277L16.6594 27.1856C17.226 27.7899 18.0039 28.1382 18.825 28.1382V27.4687V26.7993C18.3879 26.7993 17.9593 26.6145 17.6362 26.2698L17.1478 26.7277ZM50.4495 17.3489V18.0183C51.2706 18.0183 52.0485 17.67 52.6151 17.0657L52.1267 16.6078L51.6383 16.15C51.3152 16.4946 50.8866 16.6794 50.4495 16.6794V17.3489ZM52.1267 16.6078L52.6151 17.0657C53.1802 16.4629 53.4908 15.654 53.4908 14.8189H52.8214H52.1519C52.1519 15.3258 51.9627 15.8039 51.6383 16.15L52.1267 16.6078ZM52.8214 14.8189H53.4908C53.4908 13.9838 53.1802 13.1749 52.6151 12.5721L52.1267 13.0299L51.6383 13.4878C51.9627 13.8339 52.1519 14.312 52.1519 14.8189H52.8214ZM52.1267 13.0299L52.6151 12.5721C52.0485 11.9678 51.2706 11.6195 50.4495 11.6195V12.2889V12.9584C50.8866 12.9584 51.3152 13.1432 51.6383 13.4878L52.1267 13.0299ZM44.1246 12.2889V11.6195C43.3036 11.6195 42.5256 11.9678 41.9591 12.5721L42.4475 13.0299L42.9359 13.4878C43.259 13.1432 43.6876 12.9584 44.1246 12.9584V12.2889ZM42.4475 13.0299L41.9591 12.5721C41.3939 13.1749 41.0833 13.9838 41.0833 14.8189H41.7528H42.4222C42.4222 14.312 42.6114 13.8339 42.9359 13.4878L42.4475 13.0299ZM41.7528 14.8189H41.0833C41.0833 15.654 41.3939 16.4629 41.9591 17.0657L42.4475 16.6078L42.9359 16.15C42.6114 15.8039 42.4222 15.3258 42.4222 14.8189H41.7528ZM42.4475 16.6078L41.9591 17.0657C42.5256 17.67 43.3036 18.0183 44.1246 18.0183V17.3489V16.6794C43.6876 16.6794 43.259 16.4946 42.9359 16.15L42.4475 16.6078ZM50.4495 27.4687V28.1382C51.2706 28.1382 52.0485 27.7899 52.6151 27.1856L52.1267 26.7277L51.6383 26.2698C51.3152 26.6145 50.8866 26.7993 50.4495 26.7993V27.4687ZM52.1267 26.7277L52.6151 27.1856C53.1802 26.5827 53.4908 25.7738 53.4908 24.9388H52.8214H52.1519C52.1519 25.4456 51.9627 25.9237 51.6383 26.2698L52.1267 26.7277ZM52.8214 24.9388H53.4908C53.4908 24.1037 53.1802 23.2948 52.6151 22.6919L52.1267 23.1498L51.6383 23.6077C51.9627 23.9538 52.1519 24.4319 52.1519 24.9388H52.8214ZM52.1267 23.1498L52.6151 22.6919C52.0485 22.0876 51.2706 21.7393 50.4495 21.7393V22.4088V23.0782C50.8866 23.0782 51.3152 23.263 51.6383 23.6077L52.1267 23.1498ZM44.1246 22.4088V21.7393C43.3036 21.7393 42.5256 22.0876 41.9591 22.6919L42.4475 23.1498L42.9359 23.6077C43.259 23.263 43.6876 23.0782 44.1246 23.0782V22.4088ZM42.4475 23.1498L41.9591 22.6919C41.3939 23.2948 41.0833 24.1037 41.0833 24.9388H41.7528H42.4222C42.4222 24.4319 42.6114 23.9538 42.9359 23.6077L42.4475 23.1498ZM41.7528 24.9388H41.0833C41.0833 25.7739 41.3939 26.5827 41.9591 27.1856L42.4475 26.7277L42.9359 26.2698C42.6114 25.9237 42.4222 25.4456 42.4222 24.9388H41.7528ZM42.4475 26.7277L41.9591 27.1856C42.5256 27.7899 43.3036 28.1382 44.1246 28.1382V27.4687V26.7993C43.6876 26.7993 43.259 26.6145 42.9359 26.2698L42.4475 26.7277ZM31.4748 12.2889V12.9584H37.7997V12.2889V11.6195H31.4748V12.2889ZM37.7997 7.229V6.55954H31.4748V7.229V7.89845H37.7997V7.229ZM41.7528 16.5055H41.0833V23.2521H41.7528H42.4222V16.5055H41.7528ZM46.4965 23.2521H47.1659V16.5055H46.4965H45.827V23.2521H46.4965ZM37.7997 27.4687V26.7993H31.4748V27.4687V28.1382H37.7997V27.4687ZM31.4748 32.5286V33.1981H37.7997V32.5286V31.8592H31.4748V32.5286ZM27.5217 23.2521H28.1912V16.5055H27.5217H26.8523V23.2521H27.5217ZM22.778 16.5055H22.1086V23.2521H22.778H23.4475V16.5055H22.778ZM31.4748 27.4687V26.7993C29.8953 26.7993 29.0221 26.7909 28.4161 26.7047L28.3218 27.3675L28.2276 28.0303C28.9498 28.133 29.9361 28.1382 31.4748 28.1382V27.4687ZM28.3218 27.3675L28.3944 26.702C28.2623 26.6876 28.132 26.6545 28.0066 26.6031L27.7526 27.2225L27.4986 27.8419C27.739 27.9405 27.9914 28.0049 28.2492 28.033L28.3218 27.3675ZM24.4004 30.7982L23.9112 31.2552C25.0319 32.4545 26.3867 32.8726 27.594 33.0462L27.6893 32.3836L27.7846 31.721C26.7403 31.5708 25.7232 31.2332 24.8895 30.3411L24.4004 30.7982ZM27.6893 32.3836L27.5941 33.0462C28.7089 33.2065 30.0716 33.1981 31.4748 33.1981V32.5286V31.8592C30.0318 31.8592 28.7822 31.8643 27.7846 31.7209L27.6893 32.3836ZM22.778 23.2521H22.1086C22.1086 24.7525 22.101 26.1955 22.2498 27.3738L22.914 27.2899L23.5782 27.206C23.4424 26.131 23.4475 24.7877 23.4475 23.2521H22.778ZM22.914 27.2899L22.2499 27.3739C22.41 28.6405 22.7941 30.0675 23.9127 31.2568L24.4004 30.7982L24.888 30.3395C24.0459 29.4441 23.7217 28.3411 23.5782 27.206L22.914 27.2899ZM27.7526 27.2225L28.3915 27.0227L28.3884 27.0126L27.7494 27.2123L27.1105 27.4121L27.1136 27.4222L27.7526 27.2225ZM27.7494 27.2123L28.3556 26.9283L28.3398 26.8945L27.7336 27.1786L27.1274 27.4627L27.1432 27.4964L27.7494 27.2123ZM27.7336 27.1786L28.3689 26.9676C28.3249 26.8349 28.296 26.6964 28.2834 26.5554L27.6166 26.6153L26.9498 26.6752C26.9717 26.9185 27.0215 27.1584 27.0983 27.3897L27.7336 27.1786ZM27.6166 26.6153L28.2809 26.5322C28.1987 25.8751 28.1912 24.9331 28.1912 23.2521H27.5217H26.8523C26.8523 24.8972 26.8574 25.9386 26.9523 26.6983L27.6166 26.6153ZM41.7528 23.2521H41.0833C41.0833 24.9331 41.0758 25.8751 40.9936 26.5322L41.6579 26.6153L42.3222 26.6983C42.4172 25.9386 42.4222 24.8972 42.4222 23.2521H41.7528ZM41.6579 26.6153L40.9915 26.5514C40.9769 26.704 40.9433 26.8534 40.8921 26.9955L41.5219 27.2225L42.1517 27.4495C42.2411 27.2014 42.2991 26.9424 42.3243 26.6792L41.6579 26.6153ZM44.8741 30.7982L45.3618 31.2568C46.4804 30.0675 46.8645 28.6405 47.0246 27.3739L46.3605 27.2899L45.6963 27.206C45.5528 28.3411 45.2286 29.4441 44.3865 30.3395L44.8741 30.7982ZM46.3605 27.2899L47.0247 27.3738C47.1735 26.1955 47.1659 24.7525 47.1659 23.2521H46.4965H45.827C45.827 24.7877 45.8321 26.131 45.6963 27.206L46.3605 27.2899ZM37.7997 32.5286V33.1981C39.2029 33.1981 40.5656 33.2065 41.6804 33.0462L41.5852 32.3836L41.4899 31.7209C40.4923 31.8643 39.2427 31.8592 37.7997 31.8592V32.5286ZM41.5852 32.3836L41.6805 33.0462C42.8878 32.8726 44.2426 32.4545 45.3633 31.2552L44.8741 30.7982L44.385 30.3411C43.5513 31.2332 42.5342 31.5708 41.4899 31.721L41.5852 32.3836ZM41.5219 27.2225L41.2976 26.5917L41.2881 26.5951L41.5124 27.2258L41.7368 27.8566L41.7463 27.8532L41.5219 27.2225ZM41.5124 27.2258L41.1974 26.6351L41.1658 26.652L41.4808 27.2427L41.7958 27.8334L41.8274 27.8166L41.5124 27.2258ZM41.4808 27.2427L41.2441 26.6165C41.1274 26.6606 41.0067 26.6891 40.8846 26.7015L40.9527 27.3675L41.0208 28.0335C41.259 28.0091 41.493 27.9538 41.7175 27.8689L41.4808 27.2427ZM40.9527 27.3675L40.8584 26.7047C40.2524 26.7909 39.3792 26.7993 37.7997 26.7993V27.4687V28.1382C39.3384 28.1382 40.3247 28.133 41.0469 28.0303L40.9527 27.3675ZM37.7997 12.2889V12.9584C39.3792 12.9584 40.2524 12.9667 40.8584 13.0529L40.9527 12.3901L41.0469 11.7273C40.3247 11.6246 39.3384 11.6195 37.7997 11.6195V12.2889ZM40.9527 12.3901L40.8795 13.0556C41.0094 13.0698 41.1375 13.1022 41.2609 13.1522L41.5124 12.5318L41.764 11.9114C41.5273 11.8154 41.2791 11.7525 41.0258 11.7247L40.9527 12.3901ZM41.5124 12.5318L41.2882 13.1626L41.2977 13.166L41.5219 12.5352L41.7462 11.9044L41.7367 11.901L41.5124 12.5318ZM44.8741 8.95949L45.3633 8.50241C44.2426 7.30313 42.8878 6.88505 41.6805 6.71141L41.5852 7.37405L41.4899 8.03668C42.5342 8.18688 43.5513 8.52442 44.385 9.41657L44.8741 8.95949ZM41.5852 7.37405L41.6804 6.7114C40.5656 6.55119 39.2029 6.55954 37.7997 6.55954V7.229V7.89845C39.2427 7.89845 40.4923 7.89331 41.4899 8.03669L41.5852 7.37405ZM46.4965 16.5055H47.1659C47.1659 15.0051 47.1735 13.5622 47.0247 12.3838L46.3605 12.4677L45.6963 12.5516C45.8321 13.6266 45.827 14.97 45.827 16.5055H46.4965ZM46.3605 12.4677L47.0246 12.3838C46.8645 11.1171 46.4804 9.69014 45.3618 8.50084L44.8741 8.95949L44.3865 9.41815C45.2286 10.3135 45.5528 11.4165 45.6963 12.5517L46.3605 12.4677ZM41.5219 12.5352L40.883 12.7349L40.8861 12.745L41.5251 12.5453L42.164 12.3456L42.1609 12.3354L41.5219 12.5352ZM41.5251 12.5453L40.9189 12.8294L40.9347 12.8631L41.5409 12.579L42.1471 12.2949L42.1313 12.2612L41.5251 12.5453ZM41.5409 12.579L40.9158 12.8188C40.9184 12.8254 40.9565 12.93 40.9937 13.2258L41.6579 13.1424L42.3221 13.0589C42.2771 12.7003 42.2203 12.4811 42.166 12.3393L41.5409 12.579ZM41.6579 13.1424L40.9936 13.2254C41.0758 13.8825 41.0833 14.8246 41.0833 16.5055H41.7528H42.4222C42.4222 14.8605 42.4172 13.819 42.3222 13.0593L41.6579 13.1424ZM31.4748 7.229V6.55954C30.0716 6.55954 28.7089 6.55119 27.5941 6.7114L27.6893 7.37405L27.7846 8.03669C28.7822 7.89331 30.0318 7.89845 31.4748 7.89845V7.229ZM27.6893 7.37405L27.594 6.71141C26.3867 6.88505 25.0319 7.30313 23.9112 8.50241L24.4004 8.95949L24.8895 9.41657C25.7232 8.52442 26.7403 8.18688 27.7846 8.03668L27.6893 7.37405ZM27.7526 12.5352L27.9768 13.166L27.9863 13.1626L27.7621 12.5318L27.5378 11.901L27.5283 11.9044L27.7526 12.5352ZM27.7621 12.5318L28.0771 13.1225L28.1087 13.1056L27.7937 12.5149L27.4787 11.9242L27.447 11.9411L27.7621 12.5318ZM27.7937 12.5149L28.0304 13.1412C28.1471 13.097 28.2678 13.0686 28.3899 13.0561L28.3218 12.3901L28.2537 11.7241C28.0155 11.7485 27.7815 11.8039 27.557 11.8887L27.7937 12.5149ZM28.3218 12.3901L28.4161 13.0529C29.0221 12.9667 29.8953 12.9584 31.4748 12.9584V12.2889V11.6195C29.9361 11.6195 28.9498 11.6246 28.2276 11.7273L28.3218 12.3901ZM27.5217 16.5055H28.1912C28.1912 14.8246 28.1987 13.8825 28.2809 13.2254L27.6166 13.1424L26.9523 13.0593C26.8574 13.819 26.8523 14.8605 26.8523 16.5055H27.5217ZM27.6166 13.1424L28.283 13.2063C28.2976 13.0536 28.3312 12.9043 28.3824 12.7622L27.7526 12.5352L27.1228 12.3082C27.0334 12.5563 26.9754 12.8153 26.9502 13.0785L27.6166 13.1424ZM24.4004 8.95949L23.9127 8.50084C22.7941 9.69014 22.41 11.1171 22.2499 12.3838L22.914 12.4677L23.5782 12.5517C23.7217 11.4165 24.0459 10.3135 24.888 9.41815L24.4004 8.95949ZM22.914 12.4677L22.2498 12.3838C22.101 13.5622 22.1086 15.0051 22.1086 16.5055H22.778H23.4475C23.4475 14.97 23.4424 13.6266 23.5782 12.5516L22.914 12.4677ZM27.5217 29.9987H26.8523V36.7453H27.5217H28.1912V29.9987H27.5217ZM32.2654 36.7453H32.9349V29.9987H32.2654H31.596V36.7453H32.2654ZM37.0091 29.9987H36.3396V36.7453H37.0091H37.6785V29.9987H37.0091ZM41.7528 36.7453H42.4222V29.9987H41.7528H41.0833V36.7453H41.7528ZM27.5217 3.01239H26.8523V9.75896H27.5217H28.1912V3.01239H27.5217ZM32.2654 9.75896H32.9349V3.01239H32.2654H31.596V9.75896H32.2654ZM37.0091 3.01239H36.3396V9.75896H37.0091H37.6785V3.01239H37.0091ZM41.7528 9.75896H42.4222V3.01239H41.7528H41.0833V9.75896H41.7528ZM25.1499 12.2889V11.6195H18.825V12.2889V12.9584H25.1499V12.2889ZM18.825 17.3489V18.0183H25.1499V17.3489V16.6794H18.825V17.3489ZM25.1499 22.4088V21.7393H18.825V22.4088V23.0782H25.1499V22.4088ZM18.825 27.4687V28.1382H25.1499V27.4687V26.7993H18.825V27.4687ZM50.4495 12.2889V11.6195H44.1246V12.2889V12.9584H50.4495V12.2889ZM44.1246 17.3489V18.0183H50.4495V17.3489V16.6794H44.1246V17.3489ZM50.4495 22.4088V21.7393H44.1246V22.4088V23.0782H50.4495V22.4088ZM44.1246 27.4687V28.1382H50.4495V27.4687V26.7993H44.1246V27.4687Z" fill="#A1D9FF" mask="url(#path-3-inside-1_1784_3257)"/>
</svg>
