<svg width="100" height="100" viewBox="0 0 100 100" fill="none" xmlns="http://www.w3.org/2000/svg">
<circle cx="50" cy="50" r="50" fill="white"/>
<path d="M76.7503 23.0588C76.0753 22.5556 75.3139 22.199 74.5096 22.0093C73.7052 21.8197 72.8737 21.8008 72.0625 21.9537C71.2513 22.1066 70.4763 22.4283 69.7818 22.9004C69.0873 23.3725 68.4869 23.9857 68.0149 24.7052L44.1677 60.9955L28.5317 49.6144C27.2776 48.7003 25.7341 48.3545 24.2408 48.6531C22.7475 48.9516 21.4266 49.8701 20.5688 51.2064C19.711 52.5427 19.3864 54.1874 19.6666 55.7786C19.9468 57.3699 20.8087 58.7773 22.0628 59.6914L43.022 74.9461C43.6676 75.4156 44.3971 75.7381 45.1649 75.8935C45.9328 76.0489 46.7225 76.0337 47.4846 75.849C48.2974 75.6975 49.0742 75.3766 49.7705 74.9047C50.4668 74.4327 51.0688 73.819 51.542 73.0987L78.2962 32.3721C79.2497 30.9178 79.6224 29.1197 79.3324 27.3728C79.0423 25.6259 78.1132 24.0731 76.7493 23.0558" fill="#0072CE"/>
</svg>
