<svg width="30" height="30" viewBox="0 0 30 30" fill="none" xmlns="http://www.w3.org/2000/svg">
<rect width="30" height="30" rx="6" fill="#4A90E2"/>
<path fill-rule="evenodd" clip-rule="evenodd" d="M21.4308 10.2366C21.8183 10.5791 21.8545 11.1716 21.512 11.5616L14.3245 19.6866C14.2415 19.7804 14.1405 19.8567 14.0276 19.9109C13.9146 19.965 13.7919 19.996 13.6667 20.0019C13.5416 20.0079 13.4165 19.9887 13.2989 19.9455C13.1813 19.9023 13.0736 19.8359 12.982 19.7503L8.29453 15.3753C8.1142 15.2054 8.00848 14.971 8.00049 14.7233C7.99249 14.4757 8.08287 14.2349 8.25187 14.0537C8.42086 13.8725 8.65472 13.7655 8.90234 13.7562C9.14995 13.7469 9.39117 13.836 9.57328 14.0041L13.5608 17.7166L20.1108 10.3166C20.1924 10.2242 20.2915 10.1488 20.4024 10.0948C20.5132 10.0408 20.6336 10.0091 20.7567 10.0017C20.8798 9.99427 21.0031 10.0112 21.1196 10.0515C21.2362 10.0918 21.3436 10.1547 21.4358 10.2366H21.4308Z" fill="white"/>
</svg>
