<svg width="23" height="20" viewBox="0 0 23 20" fill="none" xmlns="http://www.w3.org/2000/svg">
<path d="M11.9999 13.6083C10.0083 13.6083 8.3916 11.9917 8.3916 10C8.3916 8.00833 10.0083 6.39166 11.9999 6.39166C13.9916 6.39166 15.6083 8.00833 15.6083 10C15.6083 11.9917 13.9916 13.6083 11.9999 13.6083ZM11.9999 7.64166C10.6999 7.64166 9.6416 8.7 9.6416 10C9.6416 11.3 10.6999 12.3583 11.9999 12.3583C13.2999 12.3583 14.3583 11.3 14.3583 10C14.3583 8.7 13.2999 7.64166 11.9999 7.64166Z" fill="#475569"/>
<path d="M12.0004 17.5167C8.86706 17.5167 5.90872 15.6833 3.87539 12.5C2.99206 11.125 2.99206 8.88334 3.87539 7.5C5.91706 4.31667 8.87539 2.48334 12.0004 2.48334C15.1254 2.48334 18.0837 4.31667 20.1171 7.5C21.0004 8.875 21.0004 11.1167 20.1171 12.5C18.0837 15.6833 15.1254 17.5167 12.0004 17.5167ZM12.0004 3.73334C9.30872 3.73334 6.73372 5.35 4.93372 8.175C4.30872 9.15 4.30872 10.85 4.93372 11.825C6.73372 14.65 9.30872 16.2667 12.0004 16.2667C14.6921 16.2667 17.2671 14.65 19.0671 11.825C19.6921 10.85 19.6921 9.15 19.0671 8.175C17.2671 5.35 14.6921 3.73334 12.0004 3.73334Z" fill="#475569"/>
<line x1="0.67082" y1="4.77639" x2="21.7764" y2="15.3292" stroke="#0F172A" stroke-linecap="round"/>
</svg>
