<svg width="44" height="41" viewBox="0 0 44 41" fill="none" xmlns="http://www.w3.org/2000/svg">
<rect width="44" height="41" rx="4" fill="#0072CE"/>
<path d="M26.8 30.5005V28.2782C26.8 27.0995 26.2943 25.969 25.3941 25.1355C24.4939 24.302 23.273 23.8338 22 23.8338H14.8C13.527 23.8338 12.3061 24.302 11.4059 25.1355C10.5057 25.969 10 27.0995 10 28.2782V30.5005M26.8 10.6426C27.8293 10.8897 28.7409 11.4462 29.3916 12.2249C30.0424 13.0036 30.3954 13.9603 30.3954 14.9448C30.3954 15.9294 30.0424 16.8861 29.3916 17.6648C28.7409 18.4434 27.8293 19 26.8 19.2471M34 30.5005V28.2782C33.9992 27.2935 33.6452 26.3369 32.9936 25.5586C32.3421 24.7803 31.4298 24.2244 30.4 23.9782" stroke="white" stroke-width="2" stroke-linecap="round" stroke-linejoin="round"/>
<path d="M18.3977 19.3889C21.0486 19.3889 23.1977 17.3991 23.1977 14.9445C23.1977 12.4899 21.0486 10.5 18.3977 10.5C15.7467 10.5 13.5977 12.4899 13.5977 14.9445C13.5977 17.3991 15.7467 19.3889 18.3977 19.3889Z" stroke="white" stroke-width="2" stroke-linecap="round" stroke-linejoin="round"/>
</svg>
