<svg width="17" height="17" viewBox="0 0 17 17" fill="none" xmlns="http://www.w3.org/2000/svg">
<g clip-path="url(#clip0_1987_3493)">
<path d="M16.9019 8.45094C16.9019 3.78361 13.1183 0 8.45094 0C3.78361 0 0 3.78361 0 8.45094C0 12.669 3.09037 16.1652 7.13048 16.7992V10.8938H4.98474V8.45094H7.13048V6.5891C7.13048 4.47108 8.39218 3.30115 10.3225 3.30115C11.2469 3.30115 12.2143 3.46621 12.2143 3.46621V5.54593H11.1486C10.0989 5.54593 9.7714 6.19741 9.7714 6.86639V8.45094H12.1152L11.7405 10.8938H9.7714V16.7992C13.8115 16.1652 16.9019 12.669 16.9019 8.45094Z" fill="#1877F2"/>
<path d="M11.7402 10.8938L12.1149 8.45094H9.77104V6.86639C9.77104 6.19807 10.0985 5.54593 11.1483 5.54593H12.2139V3.4662C12.2139 3.4662 11.2468 3.30115 10.3222 3.30115C8.39182 3.30115 7.13012 4.47107 7.13012 6.58909V8.45094H4.98438V10.8938H7.13012V16.7992C8.00511 16.9361 8.89606 16.9361 9.77104 16.7992V10.8938H11.7402Z" fill="white"/>
</g>
<defs>
<clipPath id="clip0_1987_3493">
<rect width="16.9019" height="16.9019" fill="white"/>
</clipPath>
</defs>
</svg>
