<svg width="90" height="78" viewBox="0 0 90 78" fill="none" xmlns="http://www.w3.org/2000/svg">
<rect width="90" height="78" rx="12" fill="#EEEEEE"/>
<path d="M28.1549 38.5268C27.5786 37.5098 27.6501 36.2466 28.651 35.4865C28.9399 35.2683 29.2813 35.034 29.6845 34.7915C30.0876 34.549 30.4546 34.3571 30.7831 34.2049C31.9239 33.6755 33.0726 34.2048 33.7011 35.1904C34.6259 36.6409 36.1966 39.1503 38.4689 42.9275C40.7411 46.7048 42.2221 49.2681 43.0702 50.7648C43.6464 51.7819 43.575 53.0451 42.5741 53.8052C42.2852 54.0233 41.9438 54.2576 41.5406 54.5001C41.1375 54.7427 40.7705 54.9345 40.4424 55.0875C39.3011 55.6161 38.1525 55.0869 37.524 54.1012C36.5992 52.6507 35.0285 50.1413 32.7562 46.3641C30.4839 42.5869 29.003 40.0235 28.1549 38.5268ZM52.4712 23.8988C51.8427 22.9132 50.6933 22.3844 49.5528 22.9125C49.2247 23.0655 48.8578 23.2574 48.4546 23.4999C48.0515 23.7424 47.71 23.9767 47.4216 24.1956C46.4194 24.9555 46.3488 26.2182 46.925 27.2352C47.7732 28.7319 49.2541 31.2953 51.5264 35.0725C53.7986 38.8497 55.3693 41.3591 56.2942 42.8096C56.9227 43.7953 58.0721 44.324 59.2126 43.7959C59.5407 43.6429 59.9076 43.4511 60.3108 43.2086C60.7139 42.966 61.0553 42.7317 61.3442 42.5136C62.346 41.753 62.4166 40.4903 61.8403 39.4732C60.9922 37.9765 59.5113 35.4132 57.239 31.6359C54.9667 27.8587 53.3961 25.3493 52.4712 23.8988Z" stroke="black" stroke-width="2" stroke-linecap="round" stroke-linejoin="round"/>
<path d="M39.8225 45.1923C44.1919 42.5934 48.5463 39.9695 52.8855 37.3205M50.1764 32.8191C48.1986 33.9913 45.7559 35.4474 42.8122 37.2182C40.6349 38.5281 38.7366 39.6773 37.102 40.6719M25.5342 45.3441C24.8841 44.197 25.0841 42.778 26.2782 42.0101C26.5299 41.8485 26.7863 41.6943 27.047 41.5477C28.2848 40.8525 29.6317 41.34 30.341 42.4525C30.9232 43.3648 31.7247 44.6511 32.7557 46.365C33.7868 48.0789 34.5467 49.3901 35.0807 50.3314C35.7308 51.4786 35.5308 52.8976 34.3367 53.6655C34.085 53.827 33.8286 53.9813 33.5679 54.1279C32.3301 54.823 30.9832 54.3356 30.2739 53.2231C29.6917 52.3107 28.8902 51.0245 27.8592 49.3106C26.8281 47.5967 26.0682 46.2854 25.5342 45.3441ZM59.7203 24.7787C59.0115 23.6669 57.6642 23.1787 56.4263 23.8739C56.1657 24.0205 55.9093 24.1747 55.6576 24.3363C54.4635 25.1042 54.263 26.5225 54.9136 27.6703C55.4468 28.6121 56.2075 29.9229 57.2385 31.6368C58.2696 33.3507 59.0719 34.6364 59.6533 35.5493C60.3621 36.6611 61.7094 37.1492 62.9473 36.4541C63.208 36.3075 63.4644 36.1533 63.7161 35.9917C64.9102 35.2238 65.1106 33.8055 64.4601 32.6576C63.9269 31.7158 63.1661 30.4051 62.1351 28.6912C61.1041 26.9773 60.3017 25.6915 59.7203 24.7787Z" stroke="black" stroke-width="2" stroke-linecap="round" stroke-linejoin="round"/>
</svg>
