<svg width="17" height="17" viewBox="0 0 17 17" fill="none" xmlns="http://www.w3.org/2000/svg">
<g clip-path="url(#clip0_1987_3489)">
<path d="M16.7373 8.64561C16.7373 8.07114 16.6907 7.49356 16.5913 6.92841H8.62012V10.1827H13.1848C12.9954 11.2323 12.3868 12.1608 11.4956 12.7508V14.8623H14.2189C15.8181 13.3904 16.7373 11.2168 16.7373 8.64561Z" fill="#4285F4"/>
<path d="M8.62033 16.9025C10.8996 16.9025 12.8217 16.1541 14.2222 14.8623L11.4989 12.7508C10.7412 13.2662 9.76307 13.5581 8.62344 13.5581C6.41871 13.5581 4.54935 12.0707 3.87861 10.0709H1.06836V12.2477C2.50299 15.1014 5.42503 16.9025 8.62033 16.9025Z" fill="#34A853"/>
<path d="M3.87506 10.0709C3.52106 9.02133 3.52106 7.8848 3.87506 6.83523V4.65845H1.06792C-0.130711 7.04639 -0.130711 9.85974 1.06792 12.2477L3.87506 10.0709Z" fill="#FBBC04"/>
<path d="M8.62033 3.34493C9.82517 3.32629 10.9896 3.77966 11.8622 4.61187L14.275 2.19909C12.7472 0.764462 10.7195 -0.0242725 8.62033 0.000569499C5.42503 0.000569499 2.50299 1.80162 1.06836 4.65845L3.87551 6.83523C4.54314 4.83234 6.4156 3.34493 8.62033 3.34493Z" fill="#EA4335"/>
</g>
<defs>
<clipPath id="clip0_1987_3489">
<rect width="16.9019" height="16.9019" fill="white"/>
</clipPath>
</defs>
</svg>
