<svg width="60" height="60" viewBox="0 0 60 60" fill="none" xmlns="http://www.w3.org/2000/svg">
<rect width="60" height="60" rx="8" fill="#E5F1FA"/>
<path d="M30 19.622C32.4323 18.2318 35.1914 17.5 38 17.5C40.8086 17.5 43.5677 18.2318 46 19.622V42.5C43.5677 41.1099 40.8086 40.378 38 40.378C35.1914 40.378 32.4323 41.1099 30 42.5C27.5677 41.1099 24.8086 40.378 22 40.378C19.1914 40.378 16.4323 41.1099 14 42.5V19.622C16.4323 18.2318 19.1914 17.5 22 17.5C24.8086 17.5 27.5677 18.2318 30 19.622ZM30 42.5V19.622" stroke="black" stroke-width="2" stroke-linecap="round" stroke-linejoin="round"/>
</svg>
