<svg width="44" height="41" viewBox="0 0 44 41" fill="none" xmlns="http://www.w3.org/2000/svg">
<rect width="44" height="41" rx="4" fill="#0072CE"/>
<path d="M22.1 27.05L22 27.15L21.89 27.05C17.14 22.74 14 19.89 14 17C14 15 15.5 13.5 17.5 13.5C19.04 13.5 20.54 14.5 21.07 15.86H22.93C23.46 14.5 24.96 13.5 26.5 13.5C28.5 13.5 30 15 30 17C30 19.89 26.86 22.74 22.1 27.05ZM26.5 11.5C24.76 11.5 23.09 12.31 22 13.58C20.91 12.31 19.24 11.5 17.5 11.5C14.42 11.5 12 13.91 12 17C12 20.77 15.4 23.86 20.55 28.53L22 29.85L23.45 28.53C28.6 23.86 32 20.77 32 17C32 13.91 29.58 11.5 26.5 11.5Z" fill="white"/>
</svg>
