<svg width="24" height="24" viewBox="0 0 24 24" fill="none" xmlns="http://www.w3.org/2000/svg">
<rect width="24" height="24" rx="12" fill="#0F3CB1"/>
<g clip-path="url(#clip0_2983_8950)">
<path d="M14.9141 6.16602H9.08073C7.4699 6.16602 6.16406 7.47185 6.16406 9.08268V14.916C6.16406 16.5268 7.4699 17.8327 9.08073 17.8327H14.9141C16.5249 17.8327 17.8307 16.5268 17.8307 14.916V9.08268C17.8307 7.47185 16.5249 6.16602 14.9141 6.16602Z" stroke="white" stroke-width="1.5" stroke-linecap="round" stroke-linejoin="round"/>
<path d="M14.3328 11.6317C14.4048 12.1172 14.3219 12.613 14.0959 13.0486C13.8698 13.4843 13.5122 13.8375 13.0738 14.0582C12.6354 14.2788 12.1386 14.3556 11.654 14.2777C11.1695 14.1997 10.7219 13.9709 10.3748 13.6239C10.0278 13.2768 9.79901 12.8292 9.72104 12.3447C9.64307 11.8601 9.71988 11.3633 9.94053 10.9249C10.1612 10.4865 10.5144 10.1289 10.9501 9.90284C11.3857 9.6768 11.8815 9.59388 12.367 9.66587C12.8622 9.7393 13.3207 9.97005 13.6747 10.324C14.0286 10.678 14.2594 11.1365 14.3328 11.6317Z" stroke="white" stroke-linecap="round" stroke-linejoin="round"/>
<path d="M15.2109 8.79102H15.2168" stroke="white" stroke-width="2" stroke-linecap="round" stroke-linejoin="round"/>
</g>
<defs>
<clipPath id="clip0_2983_8950">
<rect width="14" height="14" fill="white" transform="translate(5 5)"/>
</clipPath>
</defs>
</svg>
