<svg width="44" height="41" viewBox="0 0 44 41" fill="none" xmlns="http://www.w3.org/2000/svg">
<rect width="44" height="41" rx="4" fill="#EEEEEE"/>
<path d="M22 9.75C22.1989 9.75 22.3897 9.82902 22.5303 9.96967C22.671 10.1103 22.75 10.3011 22.75 10.5V10.751C23.681 10.7598 24.5754 11.1145 25.2593 11.7463C25.9432 12.3781 26.3676 13.2416 26.45 14.169C26.464 14.335 26.464 14.523 26.464 14.798V16.02C26.464 19.89 23.52 23.07 19.75 23.447V25.5C19.75 26.6272 20.1978 27.7082 20.9948 28.5052C21.7918 29.3022 22.8728 29.75 24 29.75H24.882C25.5462 29.7499 26.1955 29.5536 26.7485 29.1857C27.3015 28.8177 27.7334 28.2946 27.99 27.682C28.03 27.5873 28.0583 27.4783 28.075 27.355C27.3957 27.1342 26.8174 26.6783 26.4442 26.0694C26.0709 25.4604 25.927 24.7382 26.0385 24.0327C26.15 23.3272 26.5094 22.6845 27.0523 22.2203C27.5951 21.756 28.2857 21.5006 29 21.5C29.7462 21.4992 30.4659 21.7765 31.0186 22.2778C31.5714 22.7791 31.9174 23.4685 31.9893 24.2112C32.0611 24.9539 31.8536 25.6968 31.4071 26.2947C30.9607 26.8927 30.3075 27.3028 29.575 27.445C29.5481 27.7257 29.4804 28.0009 29.374 28.262C29.0031 29.1473 28.3788 29.9032 27.5796 30.4349C26.7804 30.9665 25.8419 31.2501 24.882 31.25H24C22.475 31.25 21.0125 30.6442 19.9341 29.5659C18.8558 28.4875 18.25 27.025 18.25 25.5V23.45C16.3332 23.2636 14.5545 22.3703 13.2604 20.944C11.9664 19.5178 11.2497 17.6608 11.25 15.735V14.798C11.25 14.523 11.25 14.335 11.265 14.17C11.3426 13.293 11.7262 12.4713 12.3488 11.8488C12.9713 11.2262 13.793 10.8426 14.67 10.765C14.863 10.752 15.0565 10.747 15.25 10.75V10.5C15.25 10.3011 15.329 10.1103 15.4697 9.96967C15.6103 9.82902 15.8011 9.75 16 9.75C16.1989 9.75 16.3897 9.82902 16.5303 9.96967C16.671 10.1103 16.75 10.3011 16.75 10.5V12.5C16.75 12.6989 16.671 12.8897 16.5303 13.0303C16.3897 13.171 16.1989 13.25 16 13.25C15.8011 13.25 15.6103 13.171 15.4697 13.0303C15.329 12.8897 15.25 12.6989 15.25 12.5V12.25C14.987 12.25 14.884 12.251 14.802 12.259C14.2758 12.3055 13.7828 12.5357 13.4093 12.9093C13.0357 13.2828 12.8055 13.7758 12.759 14.302C12.751 14.392 12.75 14.508 12.75 14.837V15.735C12.75 17.3926 13.4085 18.9823 14.5806 20.1544C15.7527 21.3265 17.3424 21.985 19 21.985C19.7832 21.985 20.5587 21.8307 21.2823 21.531C22.0059 21.2313 22.6634 20.792 23.2172 20.2382C23.771 19.6844 24.2103 19.0269 24.51 18.3033C24.8097 17.5797 24.964 16.8042 24.964 16.021V14.837C24.964 14.508 24.964 14.392 24.956 14.302C24.9066 13.7481 24.6539 13.2321 24.2465 12.8535C23.8392 12.475 23.306 12.2607 22.75 12.252V12.5C22.75 12.6989 22.671 12.8897 22.5303 13.0303C22.3897 13.171 22.1989 13.25 22 13.25C21.8011 13.25 21.6103 13.171 21.4697 13.0303C21.329 12.8897 21.25 12.6989 21.25 12.5V10.5C21.25 10.3011 21.329 10.1103 21.4697 9.96967C21.6103 9.82902 21.8011 9.75 22 9.75Z" fill="black"/>
</svg>
