<svg width="90" height="78" viewBox="0 0 90 78" fill="none" xmlns="http://www.w3.org/2000/svg">
<rect width="90" height="78" rx="12" fill="#EEEEEE"/>
<path d="M45 28.0557V20.9999C45 20.4695 45.2107 19.9608 45.5858 19.5858C45.9609 19.2107 46.4696 19 47 19" stroke="black" stroke-width="3" stroke-linecap="round" stroke-linejoin="round"/>
<path d="M57.4738 56.9988C62.3522 51.4821 65.0309 44.3636 64.9997 36.9994C64.9997 34.683 64.3292 32.4161 63.0691 30.4723C61.809 28.5286 60.0133 26.9911 57.8986 26.0455C55.784 25.0998 53.4408 24.7864 51.152 25.1431C48.8632 25.4998 46.7265 26.5114 44.9999 28.0556C43.2733 26.5114 41.1366 25.4998 38.8478 25.1431C36.5589 24.7864 34.2158 25.0998 32.1011 26.0455C29.9865 26.9911 28.1908 28.5286 26.9307 30.4723C25.6706 32.4161 25.0001 34.683 25 36.9994C24.9874 44.3603 27.6637 51.4723 32.526 56.9988C33.4214 58.0005 34.6271 58.6727 35.95 58.9077C37.2729 59.1427 38.6363 58.9268 39.8219 58.2948C41.4154 57.4446 43.1938 56.9999 44.9999 56.9999C46.806 56.9999 48.5843 57.4446 50.1778 58.2948C51.3635 58.9268 52.7269 59.1427 54.0498 58.9077C55.3727 58.6727 56.5784 58.0005 57.4738 56.9988Z" stroke="black" stroke-width="3" stroke-linecap="round" stroke-linejoin="round"/>
</svg>
