<svg width="67" height="66" viewBox="0 0 67 66" fill="none" xmlns="http://www.w3.org/2000/svg">
<path d="M54.5858 21.8923C51.8437 21.8923 49.2139 20.8272 47.275 18.9313C45.336 17.0355 44.2467 14.4641 44.2467 11.7829C44.2467 9.10178 43.1574 6.53042 41.2184 4.63455C39.2795 2.73867 36.6497 1.67358 33.9076 1.67358H32.6912C29.9491 1.67358 27.3193 2.73867 25.3803 4.63455C23.4414 6.53042 22.3521 9.10178 22.3521 11.7829C22.3521 14.4641 21.2628 17.0355 19.3238 18.9313C17.3849 20.8272 14.7551 21.8923 12.013 21.8923C9.27085 21.8923 6.64105 22.9574 4.70209 24.8533C2.76312 26.7492 1.67383 29.3205 1.67383 32.0017V33.191C1.67383 35.8722 2.76312 38.4435 4.70209 40.3394C6.64105 42.2353 9.27085 43.3004 12.013 43.3004C14.7551 43.3004 17.3849 44.3655 19.3238 46.2613C21.2628 48.1572 22.3521 50.7286 22.3521 53.4097C22.3521 56.0909 23.4414 58.6623 25.3803 60.5581C27.3193 62.454 29.9491 63.5191 32.6912 63.5191H33.9076C36.6497 63.5191 39.2795 62.454 41.2184 60.5581C43.1574 58.6623 44.2467 56.0909 44.2467 53.4097C44.2467 50.7286 45.336 48.1572 47.275 46.2613C49.2139 44.3655 51.8437 43.3004 54.5858 43.3004C57.3279 43.3004 59.9577 42.2353 61.8967 40.3394C63.8356 38.4435 64.9249 35.8722 64.9249 33.191V32.0017C64.9249 29.3205 63.8356 26.7492 61.8967 24.8533C59.9577 22.9574 57.3279 21.8923 54.5858 21.8923Z" stroke="#4A90E2" stroke-width="3.34733" stroke-linecap="round" stroke-linejoin="round"/>
<path d="M56.0962 39.7448C54.1576 37.8489 53.0685 35.2778 53.0685 32.5969C53.0685 29.9159 54.1576 27.3448 56.0962 25.4489C58.0349 23.5531 59.124 20.982 59.124 18.301C59.124 15.6201 58.0349 13.0489 56.0962 11.1531L55.235 10.3111C53.2961 8.41549 50.6665 7.35059 47.9247 7.35059C45.1828 7.35059 42.5532 8.41549 40.6143 10.3111C39.6542 11.25 38.5143 11.9948 37.2598 12.503C36.0053 13.0112 34.6606 13.2727 33.3027 13.2727C31.9448 13.2727 30.6002 13.0112 29.3456 12.503C28.0911 11.9948 26.9512 11.25 25.9911 10.3111C24.0522 8.41549 21.4226 7.35059 18.6808 7.35059C15.9389 7.35059 13.3093 8.41549 11.3704 10.3111L10.5092 11.1507C8.57055 13.0466 7.48145 15.6177 7.48145 18.2987C7.48145 20.9796 8.57055 23.5507 10.5092 25.4466C11.4695 26.3853 12.2313 27.4999 12.751 28.7265C13.2707 29.9532 13.5382 31.2679 13.5382 32.5957C13.5382 33.9234 13.2707 35.2382 12.751 36.4648C12.2313 37.6915 11.4695 38.806 10.5092 39.7448C8.57055 41.6406 7.48145 44.2118 7.48145 46.8927C7.48145 49.5736 8.57055 52.1448 10.5092 54.0406L11.368 54.8827C13.3069 56.7782 15.9365 57.8431 18.6783 57.8431C21.4202 57.8431 24.0498 56.7782 25.9887 54.8827C26.9488 53.9437 28.0887 53.1989 29.3432 52.6907C30.5977 52.1825 31.9424 51.921 33.3003 51.921C34.6582 51.921 36.0028 52.1825 37.2574 52.6907C38.5119 53.1989 39.6518 53.9437 40.6119 54.8827C42.5508 56.7782 45.1804 57.8431 47.9222 57.8431C50.6641 57.8431 53.2937 56.7782 55.2326 54.8827L56.0938 54.043C58.0324 52.1472 59.1216 49.576 59.1216 46.8951C59.1216 44.2141 58.0324 41.643 56.0938 39.7472" stroke="#4A90E2" stroke-width="3.34733" stroke-linecap="round" stroke-linejoin="round"/>
<path d="M33.3605 43.2367C38.7945 43.2367 43.1996 38.8316 43.1996 33.3977C43.1996 27.9637 38.7945 23.5586 33.3605 23.5586C27.9266 23.5586 23.5215 27.9637 23.5215 33.3977C23.5215 38.8316 27.9266 43.2367 33.3605 43.2367Z" stroke="#4A90E2" stroke-width="2.0084"/>
<path d="M24.8768 20.9387C23.9232 21.1941 23.0537 21.696 22.3557 22.3941C21.6577 23.0921 21.1558 23.9616 20.9004 24.9151M41.8421 20.9387C42.7957 21.1941 43.6652 21.696 44.3632 22.3941C45.0612 23.0921 45.5631 23.9616 45.8185 24.9151M33.3595 27.7755V33.0464C33.3595 33.2404 33.5169 33.3978 33.7108 33.3978H37.5762" stroke="#4A90E2" stroke-width="2.0084" stroke-linecap="round"/>
</svg>
