<svg width="90" height="78" viewBox="0 0 90 78" fill="none" xmlns="http://www.w3.org/2000/svg">
<rect width="90" height="78" rx="12" fill="#EEEEEE"/>
<path fill-rule="evenodd" clip-rule="evenodd" d="M58.1228 39.5002L44.7344 52.8302C42.9501 54.5723 40.5502 55.5397 38.0565 55.5221C35.5628 55.5044 33.1768 54.5031 31.4173 52.736C29.6578 50.9688 28.667 48.5785 28.6602 46.0847C28.6534 43.5909 29.6312 41.1953 31.3811 39.4186L44.7694 26.0886C46.5538 24.3464 48.9537 23.3791 51.4474 23.3967C53.9411 23.4144 56.327 24.4156 58.0865 26.1828C59.8461 27.95 60.8369 30.3403 60.8437 32.8341C60.8505 35.3278 59.8726 37.7235 58.1228 39.5002ZM55.7894 28.4702C54.6422 27.3195 53.0851 26.6711 51.4602 26.6674C49.8353 26.6636 48.2754 27.3048 47.1228 28.4502L33.7328 41.7802C32.5806 42.9273 31.9313 44.4851 31.9277 46.1108C31.9242 47.7366 32.5665 49.2972 33.7136 50.4494C34.8607 51.6015 36.4184 52.2508 38.0442 52.2544C39.67 52.258 41.2306 51.6156 42.3828 50.4686L55.7711 37.1386C56.9223 35.9912 57.571 34.4338 57.5748 32.8085C57.5785 31.1832 56.937 29.6229 55.7911 28.4702H55.7894Z" fill="black"/>
<path fill-rule="evenodd" clip-rule="evenodd" d="M38.5309 33.2067C38.8435 32.8943 39.2673 32.7188 39.7093 32.7188C40.1512 32.7188 40.5751 32.8943 40.8876 33.2067L50.9709 43.2901C51.2745 43.6044 51.4425 44.0254 51.4387 44.4624C51.4349 44.8994 51.2597 45.3174 50.9506 45.6264C50.6416 45.9354 50.2236 46.1107 49.7866 46.1145C49.3496 46.1183 48.9286 45.9503 48.6143 45.6467L38.5309 35.5634C38.2185 35.2508 38.043 34.827 38.043 34.3851C38.043 33.9431 38.2185 33.5193 38.5309 33.2067Z" fill="black"/>
</svg>
