<svg width="90" height="78" viewBox="0 0 90 78" fill="none" xmlns="http://www.w3.org/2000/svg">
<rect width="90" height="78" rx="12" fill="#EEEEEE"/>
<path fill-rule="evenodd" clip-rule="evenodd" d="M52.272 33.5442C52.272 35.4731 51.5058 37.3229 50.1419 38.6868C48.778 40.0507 46.9281 40.8169 44.9993 40.8169C43.0704 40.8169 41.2206 40.0507 39.8567 38.6868C38.4928 37.3229 37.7266 35.4731 37.7266 33.5442C37.7266 31.6154 38.4928 29.7655 39.8567 28.4016C41.2206 27.0377 43.0704 26.2715 44.9993 26.2715C46.9281 26.2715 48.778 27.0377 50.1419 28.4016C51.5058 29.7655 52.272 31.6154 52.272 33.5442ZM48.6357 33.5442C48.6357 34.5086 48.2525 35.4336 47.5706 36.1155C46.8886 36.7975 45.9637 37.1806 44.9993 37.1806C44.0349 37.1806 43.1099 36.7975 42.428 36.1155C41.746 35.4336 41.3629 34.5086 41.3629 33.5442C41.3629 32.5798 41.746 31.6549 42.428 30.9729C43.1099 30.291 44.0349 29.9078 44.9993 29.9078C45.9637 29.9078 46.8886 30.291 47.5706 30.9729C48.2525 31.6549 48.6357 32.5798 48.6357 33.5442Z" fill="#0F172A"/>
<path fill-rule="evenodd" clip-rule="evenodd" d="M45 19C33.9545 19 25 27.9545 25 39C25 50.0455 33.9545 59 45 59C56.0455 59 65 50.0455 65 39C65 27.9545 56.0455 19 45 19ZM28.6364 39C28.6364 42.8 29.9327 46.2982 32.1055 49.0764C33.6317 47.073 35.6003 45.4493 37.8575 44.3322C40.1148 43.2151 42.5996 42.6347 45.1182 42.6364C47.6043 42.6335 50.0583 43.1984 52.293 44.288C54.5276 45.3776 56.4839 46.9631 58.0127 48.9236C59.5881 46.8575 60.6488 44.4458 61.1071 41.8883C61.5654 39.3308 61.4081 36.701 60.6482 34.2163C59.8883 31.7317 58.5477 29.4637 56.7372 27.6001C54.9268 25.7364 52.6986 24.3307 50.2371 23.4991C47.7755 22.6676 45.1513 22.4341 42.5816 22.8181C40.0119 23.2021 37.5705 24.1925 35.4596 25.7074C33.3486 27.2222 31.6287 29.2179 30.4422 31.5294C29.2557 33.8409 28.6367 36.4018 28.6364 39ZM45 55.3636C41.2435 55.3697 37.6003 54.0774 34.6873 51.7055C35.8597 50.0266 37.4204 48.6558 39.2365 47.7099C41.0527 46.764 43.0705 46.271 45.1182 46.2727C47.1403 46.271 49.1337 46.7517 50.9327 47.6751C52.7317 48.5985 54.2844 49.9378 55.4618 51.5818C52.5263 54.0309 48.823 55.3696 45 55.3636Z" fill="#0F172A"/>
</svg>
