<svg width="60" height="60" viewBox="0 0 60 60" fill="none" xmlns="http://www.w3.org/2000/svg">
<rect width="60" height="60" rx="8" fill="#E5F1FA"/>
<path d="M36.4 43.334V40.3711C36.4 38.7995 35.7257 37.2922 34.5255 36.1809C33.3253 35.0696 31.6974 34.4453 30 34.4453H20.4C18.7026 34.4453 17.0747 35.0696 15.8745 36.1809C14.6743 37.2922 14 38.7995 14 40.3711V43.334M36.4 16.8574C37.7724 17.1869 38.9878 17.9289 39.8555 18.9671C40.7231 20.0053 41.1939 21.2809 41.1939 22.5936C41.1939 23.9063 40.7231 25.1819 39.8555 26.2201C38.9878 27.2583 37.7724 28.0004 36.4 28.3298M46 43.334V40.3711C45.9989 39.0581 45.527 37.7826 44.6582 36.7449C43.7894 35.7072 42.573 34.9661 41.2 34.6378" stroke="#0F172A" stroke-width="2" stroke-linecap="round" stroke-linejoin="round"/>
<path d="M25.2008 28.5196C28.7354 28.5196 31.6008 25.8665 31.6008 22.5938C31.6008 19.321 28.7354 16.668 25.2008 16.668C21.6662 16.668 18.8008 19.321 18.8008 22.5938C18.8008 25.8665 21.6662 28.5196 25.2008 28.5196Z" stroke="#0F172A" stroke-width="2" stroke-linecap="round" stroke-linejoin="round"/>
</svg>
