<svg width="64" height="64" viewBox="0 0 64 64" fill="none" xmlns="http://www.w3.org/2000/svg">
<path d="M13.5537 2.00879H49.6963C52.7583 2.00879 55.6952 3.2245 57.8604 5.38965C60.0255 7.5548 61.2412 10.4917 61.2412 13.5537V49.6963C61.2412 52.7583 60.0255 55.6952 57.8604 57.8604C55.6952 60.0255 52.7583 61.2412 49.6963 61.2412H13.5537C10.4917 61.2412 7.5548 60.0255 5.38965 57.8604C3.2245 55.6952 2.00879 52.7583 2.00879 49.6963V13.5537C2.00879 10.4917 3.2245 7.5548 5.38965 5.38965C7.5548 3.2245 10.4917 2.00879 13.5537 2.00879Z" stroke="#4A90E2" stroke-width="4.0167"/>
<path d="M9.03516 11.2946C9.03516 10.6955 9.27315 10.1209 9.69678 9.69727C10.1204 9.27364 10.695 9.03564 11.2941 9.03564H51.9548C52.5539 9.03564 53.1285 9.27364 53.5521 9.69727C53.9757 10.1209 54.2137 10.6955 54.2137 11.2946C54.2137 11.8937 53.9757 12.4682 53.5521 12.8919C53.1285 13.3155 52.5539 13.5535 51.9548 13.5535H11.2941C10.695 13.5535 10.1204 13.3155 9.69678 12.8919C9.27315 12.4682 9.03516 11.8937 9.03516 11.2946Z" fill="url(#paint0_linear_1784_3243)"/>
<path d="M15.8119 36.1432C17.6093 36.1432 19.333 35.4292 20.6039 34.1583C21.8747 32.8874 22.5887 31.1637 22.5887 29.3664C22.5887 27.5691 21.8747 25.8454 20.6039 24.5745C19.333 23.3036 17.6093 22.5896 15.8119 22.5896C14.0146 22.5896 12.2909 23.3036 11.02 24.5745C9.74914 25.8454 9.03516 27.5691 9.03516 29.3664C9.03516 31.1637 9.74914 32.8874 11.02 34.1583C12.2909 35.4292 14.0146 36.1432 15.8119 36.1432Z" fill="url(#paint1_linear_1784_3243)"/>
<path d="M22.5887 47.4374C22.5887 49.2347 21.8747 50.9584 20.6039 52.2293C19.333 53.5002 17.6093 54.2142 15.8119 54.2142C14.0146 54.2142 12.2909 53.5002 11.02 52.2293C9.74914 50.9584 9.03516 49.2347 9.03516 47.4374C9.03516 45.6401 9.74914 43.9164 11.02 42.6455C12.2909 41.3746 14.0146 40.6606 15.8119 40.6606C17.6093 40.6606 19.333 41.3746 20.6039 42.6455C21.8747 43.9164 22.5887 45.6401 22.5887 47.4374Z" fill="url(#paint2_linear_1784_3243)"/>
<path d="M27.1064 29.3666C27.1064 28.7675 27.3444 28.1929 27.7681 27.7693C28.1917 27.3457 28.7663 27.1077 29.3654 27.1077H51.9547C52.5538 27.1077 53.1283 27.3457 53.552 27.7693C53.9756 28.1929 54.2136 28.7675 54.2136 29.3666C54.2136 29.9657 53.9756 30.5403 53.552 30.9639C53.1283 31.3875 52.5538 31.6255 51.9547 31.6255H29.3654C28.7663 31.6255 28.1917 31.3875 27.7681 30.9639C27.3444 30.5403 27.1064 29.9657 27.1064 29.3666Z" fill="url(#paint3_linear_1784_3243)"/>
<path d="M29.3654 45.1787C28.7663 45.1787 28.1917 45.4167 27.7681 45.8403C27.3444 46.264 27.1064 46.8385 27.1064 47.4376C27.1064 48.0367 27.3444 48.6113 27.7681 49.0349C28.1917 49.4586 28.7663 49.6966 29.3654 49.6966H51.9547C52.5538 49.6966 53.1283 49.4586 53.552 49.0349C53.9756 48.6113 54.2136 48.0367 54.2136 47.4376C54.2136 46.8385 53.9756 46.264 53.552 45.8403C53.1283 45.4167 52.5538 45.1787 51.9547 45.1787H29.3654Z" fill="url(#paint4_linear_1784_3243)"/>
<defs>
<linearGradient id="paint0_linear_1784_3243" x1="6.77623" y1="6.77671" x2="61.7043" y2="16.5263" gradientUnits="userSpaceOnUse">
<stop stop-color="#0094F0"/>
<stop offset="1" stop-color="#2764E7"/>
</linearGradient>
<linearGradient id="paint1_linear_1784_3243" x1="6.77623" y1="6.7771" x2="61.7043" y2="16.5266" gradientUnits="userSpaceOnUse">
<stop stop-color="#0094F0"/>
<stop offset="1" stop-color="#2764E7"/>
</linearGradient>
<linearGradient id="paint2_linear_1784_3243" x1="6.77623" y1="6.77672" x2="61.7043" y2="16.5263" gradientUnits="userSpaceOnUse">
<stop stop-color="#0094F0"/>
<stop offset="1" stop-color="#2764E7"/>
</linearGradient>
<linearGradient id="paint3_linear_1784_3243" x1="6.77609" y1="6.77731" x2="61.7042" y2="16.5268" gradientUnits="userSpaceOnUse">
<stop stop-color="#0094F0"/>
<stop offset="1" stop-color="#2764E7"/>
</linearGradient>
<linearGradient id="paint4_linear_1784_3243" x1="6.77609" y1="6.77692" x2="61.7042" y2="16.5265" gradientUnits="userSpaceOnUse">
<stop stop-color="#0094F0"/>
<stop offset="1" stop-color="#2764E7"/>
</linearGradient>
</defs>
</svg>
