<svg width="25" height="24" viewBox="0 0 25 24" fill="none" xmlns="http://www.w3.org/2000/svg">
<rect width="24.25" height="23.2477" rx="11.6239" fill="#0F3CB1"/>
<path fill-rule="evenodd" clip-rule="evenodd" d="M12.4306 16.9611L12.425 16.9621L12.3884 16.9801L12.378 16.9822L12.3708 16.9801L12.3342 16.9621C12.3287 16.9604 12.3246 16.9612 12.3218 16.9647L12.3198 16.9698L12.311 17.1905L12.3136 17.2008L12.3188 17.2075L12.3724 17.2457L12.3801 17.2477L12.3863 17.2457L12.4399 17.2075L12.4461 17.1993L12.4482 17.1905L12.4394 16.9703C12.438 16.9649 12.4351 16.9618 12.4306 16.9611ZM12.5673 16.9028L12.5606 16.9038L12.4652 16.9518L12.46 16.9569L12.4585 16.9626L12.4678 17.1843L12.4703 17.1905L12.4745 17.1941L12.5781 17.2421C12.5846 17.2438 12.5896 17.2424 12.5931 17.238L12.5951 17.2307L12.5776 16.9141C12.5759 16.908 12.5724 16.9042 12.5673 16.9028ZM12.1986 16.9038C12.1963 16.9025 12.1936 16.902 12.191 16.9026C12.1884 16.9032 12.1862 16.9047 12.1847 16.9069L12.1816 16.9141L12.1641 17.2307C12.1644 17.2369 12.1673 17.241 12.1728 17.2431L12.1806 17.2421L12.2842 17.1941L12.2894 17.19L12.2914 17.1843L12.3002 16.9626L12.2986 16.9564L12.2935 16.9513L12.1986 16.9038Z" fill="white"/>
<path fill-rule="evenodd" clip-rule="evenodd" d="M13.1562 6C13.4298 6 13.6921 6.10865 13.8855 6.30204C14.0788 6.49543 14.1875 6.75772 14.1875 7.03122C14.1878 7.38756 14.3109 7.73292 14.5361 8.00905C14.7614 8.28519 15.0749 8.47522 15.424 8.54711C15.692 8.60153 15.9274 8.7602 16.0785 8.98821C16.2295 9.21622 16.2838 9.49489 16.2294 9.76291C16.1749 10.0309 16.0163 10.2664 15.7883 10.4174C15.5602 10.5684 15.2816 10.6227 15.0135 10.5683C14.7281 10.51 14.4507 10.4174 14.1875 10.2924V13.2185C14.1875 13.7972 14.0252 14.3642 13.719 14.8552C13.4128 15.3462 12.9751 15.7415 12.4555 15.9962C11.936 16.2509 11.3554 16.3548 10.7797 16.2961C10.204 16.2373 9.65638 16.0183 9.19896 15.6639C8.74153 15.3095 8.39267 14.834 8.19199 14.2912C7.99132 13.7485 7.94688 13.1604 8.06373 12.5937C8.18058 12.027 8.45403 11.5044 8.85301 11.0853C9.252 10.6662 9.76053 10.3674 10.3208 10.2228C10.584 10.1594 10.8616 10.2019 11.0937 10.3413C11.3257 10.4808 11.4937 10.7058 11.5612 10.968C11.6288 11.2302 11.5905 11.5084 11.4547 11.7426C11.3189 11.9768 11.0965 12.1482 10.8354 12.2198C10.5937 12.2839 10.3835 12.4337 10.2438 12.6411C10.1041 12.8486 10.0446 13.0997 10.0761 13.3478C10.1077 13.5959 10.2283 13.8241 10.4155 13.99C10.6026 14.1559 10.8437 14.2482 11.0937 14.2497C11.3673 14.2497 11.6296 14.1411 11.823 13.9477C12.0163 13.7543 12.125 13.492 12.125 13.2185V7.03122C12.125 6.75772 12.2336 6.49543 12.427 6.30204C12.6204 6.10865 12.8827 6 13.1562 6Z" fill="white"/>
</svg>
