<svg width="24" height="24" viewBox="0 0 24 24" fill="none" xmlns="http://www.w3.org/2000/svg">
<rect width="24" height="24" rx="12" fill="#0F3CB1"/>
<path d="M18.4193 6.75001C17.8607 7.14403 17.2422 7.4454 16.5876 7.64251C16.2363 7.23855 15.7694 6.95224 15.25 6.8223C14.7307 6.69235 14.184 6.72504 13.6838 6.91594C13.1837 7.10684 12.7542 7.44674 12.4535 7.88967C12.1528 8.33261 11.9954 8.8572 12.0026 9.39251V9.97584C10.9775 10.0024 9.96168 9.77506 9.04569 9.31402C8.1297 8.85297 7.34196 8.17254 6.7526 7.33334C6.7526 7.33334 4.41927 12.5833 9.66927 14.9167C8.46791 15.7322 7.03678 16.141 5.58594 16.0833C10.8359 19 17.2526 16.0833 17.2526 9.37501C17.2521 9.21252 17.2364 9.05044 17.2059 8.89084C17.8013 8.30371 18.2214 7.56242 18.4193 6.75001Z" fill="white"/>
</svg>
