<svg width="90" height="78" viewBox="0 0 90 78" fill="none" xmlns="http://www.w3.org/2000/svg">
<rect width="90" height="78" rx="12" fill="#EEEEEE" fill-opacity="0.933333"/>
<path d="M39 23.0003C40.0609 23.0003 41.0783 23.4217 41.8284 24.1719C42.5786 24.922 43 25.9393 43 27.0002V40.6536C41.212 39.2737 38.932 38.4597 36.328 38.0277L35.672 41.9716C38.432 42.4315 40.194 43.3055 41.28 44.4815C42.34 45.6294 43 47.3333 43 49.9992C43 51.3253 42.4732 52.597 41.5355 53.5346C40.5979 54.4723 39.3261 54.999 38 54.999C36.6739 54.999 35.4022 54.4723 34.4645 53.5346C33.5268 52.597 33 51.3253 33 49.9992V49.2993C33.86 49.5852 34.752 49.8192 35.672 49.9712L36.328 46.0274C34.842 45.7794 33.35 45.2274 31.858 44.5195C31.0026 44.1139 30.2799 43.4739 29.7739 42.6737C29.268 41.8736 28.9996 40.9463 29 39.9996C29 38.3297 29.416 37.0158 30.118 36.0518C30.808 35.0998 31.884 34.3399 33.486 33.9399L35 33.5599V27.0002C35 25.9393 35.4214 24.922 36.1716 24.1719C36.9217 23.4217 37.9391 23.0003 39 23.0003ZM45 21.7084C43.9252 20.4897 42.5046 19.6272 40.9275 19.2357C39.3504 18.8442 37.6914 18.9422 36.1713 19.5168C34.6513 20.0913 33.3423 21.1151 32.4185 22.4519C31.4947 23.7888 30.9999 25.3752 31 27.0002V30.548C29.298 31.232 27.902 32.296 26.882 33.6979C25.584 35.4838 25 37.6697 25 39.9996C24.9981 41.4801 25.3623 42.9381 26.0602 44.2438C26.7581 45.5494 27.768 46.6623 29 47.4833V49.9992C28.9998 51.8604 29.5766 53.6759 30.651 55.1956C31.7255 56.7154 33.2447 57.8646 34.9995 58.4851C36.7542 59.1056 38.6582 59.1668 40.4492 58.6603C42.2402 58.1539 43.8301 57.1046 45 55.657C46.1699 57.1046 47.7598 58.1539 49.5508 58.6603C51.3418 59.1668 53.2458 59.1056 55.0005 58.4851C56.7553 57.8646 58.2745 56.7154 59.349 55.1956C60.4234 53.6759 61.0002 51.8604 61 49.9992V47.4833C62.232 46.6623 63.2419 45.5494 63.9398 44.2438C64.6377 42.9381 65.0019 41.4801 65 39.9996C65 37.6697 64.416 35.4838 63.118 33.6999C62.098 32.296 60.702 31.232 59 30.548V27.0002C59.0001 25.3752 58.5053 23.7888 57.5815 22.4519C56.6577 21.1151 55.3487 20.0913 53.8287 19.5168C52.3086 18.9422 50.6496 18.8442 49.0725 19.2357C47.4954 19.6272 46.0748 20.4897 45 21.7084ZM57 49.2973V49.9992C57 51.3253 56.4732 52.597 55.5355 53.5346C54.5978 54.4723 53.3261 54.999 52 54.999C50.6739 54.999 49.4021 54.4723 48.4645 53.5346C47.5268 52.597 47 51.3253 47 49.9992C47 47.3333 47.66 45.6294 48.72 44.4795C49.806 43.3055 51.568 42.4315 54.328 41.9716L53.672 38.0277C51.068 38.4597 48.788 39.2737 47 40.6536V27.0002C47 25.9393 47.4214 24.922 48.1716 24.1719C48.9217 23.4217 49.9391 23.0003 51 23.0003C52.0609 23.0003 53.0783 23.4217 53.8284 24.1719C54.5786 24.922 55 25.9393 55 27.0002V33.5599L56.516 33.9399C58.116 34.3399 59.192 35.0998 59.882 36.0518C60.584 37.0158 61 38.3317 61 39.9996C61 41.9976 59.836 43.7135 58.14 44.5195C56.65 45.2274 55.156 45.7794 53.672 46.0274L54.328 49.9712C55.2346 49.8152 56.1279 49.5899 57 49.2973Z" fill="#475569"/>
</svg>
